ISO-10303-21;
HEADER;
/* Generated by software containing ST-Developer
 * from STEP Tools, Inc. (www.steptools.com) 
 */

FILE_DESCRIPTION(
/* description */ (''),
/* implementation_level */ '2;1');

FILE_NAME(
/* name */ 'RearPlate.step',
/* time_stamp */ '2025-12-28T17:03:07+09:00',
/* author */ (''),
/* organization */ (''),
/* preprocessor_version */ 'ST-DEVELOPER v20.1',
/* originating_system */ 'Autodesk Translation Framework v14.21.0.0',
/* authorisation */ '');

FILE_SCHEMA (('AUTOMOTIVE_DESIGN { 1 0 10303 214 3 1 1 }'));
ENDSEC;

DATA;
#10=MECHANICAL_DESIGN_GEOMETRIC_PRESENTATION_REPRESENTATION('',(#13),#1068);
#11=SHAPE_REPRESENTATION_RELATIONSHIP('SRR','None',#1075,#12);
#12=ADVANCED_BREP_SHAPE_REPRESENTATION('',(#14),#1067);
#13=STYLED_ITEM('',(#1085),#14);
#14=MANIFOLD_SOLID_BREP('\X2\30DC30C730A3\X0\',#628);
#15=FACE_BOUND('',#138,.T.);
#16=FACE_BOUND('',#139,.T.);
#17=FACE_BOUND('',#140,.T.);
#18=FACE_BOUND('',#141,.T.);
#19=FACE_BOUND('',#142,.T.);
#20=FACE_BOUND('',#143,.T.);
#21=FACE_BOUND('',#144,.T.);
#22=FACE_BOUND('',#146,.T.);
#23=FACE_BOUND('',#147,.T.);
#24=FACE_BOUND('',#148,.T.);
#25=FACE_BOUND('',#149,.T.);
#26=FACE_BOUND('',#150,.T.);
#27=FACE_BOUND('',#151,.T.);
#28=FACE_BOUND('',#152,.T.);
#29=CIRCLE('',#645,6.00000035763197);
#30=CIRCLE('',#646,6.00000035763197);
#31=CIRCLE('',#649,5.99999308956075);
#32=CIRCLE('',#650,5.99999308956075);
#33=CIRCLE('',#654,5.99999308956075);
#34=CIRCLE('',#655,5.99999308956075);
#35=CIRCLE('',#658,6.00000035763197);
#36=CIRCLE('',#659,6.00000035763197);
#37=CIRCLE('',#661,1.);
#38=CIRCLE('',#662,1.);
#39=CIRCLE('',#664,1.25);
#40=CIRCLE('',#665,1.25);
#41=CIRCLE('',#667,1.);
#42=CIRCLE('',#668,1.);
#43=CIRCLE('',#670,1.);
#44=CIRCLE('',#671,1.);
#45=CIRCLE('',#673,1.25);
#46=CIRCLE('',#674,1.25);
#47=CIRCLE('',#676,1.);
#48=CIRCLE('',#677,1.);
#49=CIRCLE('',#680,6.);
#50=CIRCLE('',#681,6.);
#51=CIRCLE('',#685,5.99999999999724);
#52=CIRCLE('',#686,5.99999999999724);
#53=CIRCLE('',#689,3.);
#54=CIRCLE('',#690,3.);
#55=CIRCLE('',#693,3.);
#56=CIRCLE('',#694,3.);
#57=CIRCLE('',#697,3.);
#58=CIRCLE('',#698,3.);
#59=CIRCLE('',#701,3.);
#60=CIRCLE('',#702,3.);
#61=CYLINDRICAL_SURFACE('',#644,6.00000035763197);
#62=CYLINDRICAL_SURFACE('',#648,5.99999308956075);
#63=CYLINDRICAL_SURFACE('',#653,5.99999308956075);
#64=CYLINDRICAL_SURFACE('',#657,6.00000035763197);
#65=CYLINDRICAL_SURFACE('',#660,1.);
#66=CYLINDRICAL_SURFACE('',#663,1.25);
#67=CYLINDRICAL_SURFACE('',#666,1.);
#68=CYLINDRICAL_SURFACE('',#669,1.);
#69=CYLINDRICAL_SURFACE('',#672,1.25);
#70=CYLINDRICAL_SURFACE('',#675,1.);
#71=CYLINDRICAL_SURFACE('',#679,6.);
#72=CYLINDRICAL_SURFACE('',#684,5.99999999999724);
#73=CYLINDRICAL_SURFACE('',#688,3.);
#74=CYLINDRICAL_SURFACE('',#692,3.);
#75=CYLINDRICAL_SURFACE('',#696,3.);
#76=CYLINDRICAL_SURFACE('',#700,3.);
#77=FACE_OUTER_BOUND('',#108,.T.);
#78=FACE_OUTER_BOUND('',#109,.T.);
#79=FACE_OUTER_BOUND('',#110,.T.);
#80=FACE_OUTER_BOUND('',#111,.T.);
#81=FACE_OUTER_BOUND('',#112,.T.);
#82=FACE_OUTER_BOUND('',#113,.T.);
#83=FACE_OUTER_BOUND('',#114,.T.);
#84=FACE_OUTER_BOUND('',#115,.T.);
#85=FACE_OUTER_BOUND('',#116,.T.);
#86=FACE_OUTER_BOUND('',#117,.T.);
#87=FACE_OUTER_BOUND('',#118,.T.);
#88=FACE_OUTER_BOUND('',#119,.T.);
#89=FACE_OUTER_BOUND('',#120,.T.);
#90=FACE_OUTER_BOUND('',#121,.T.);
#91=FACE_OUTER_BOUND('',#122,.T.);
#92=FACE_OUTER_BOUND('',#123,.T.);
#93=FACE_OUTER_BOUND('',#124,.T.);
#94=FACE_OUTER_BOUND('',#125,.T.);
#95=FACE_OUTER_BOUND('',#126,.T.);
#96=FACE_OUTER_BOUND('',#127,.T.);
#97=FACE_OUTER_BOUND('',#128,.T.);
#98=FACE_OUTER_BOUND('',#129,.T.);
#99=FACE_OUTER_BOUND('',#130,.T.);
#100=FACE_OUTER_BOUND('',#131,.T.);
#101=FACE_OUTER_BOUND('',#132,.T.);
#102=FACE_OUTER_BOUND('',#133,.T.);
#103=FACE_OUTER_BOUND('',#134,.T.);
#104=FACE_OUTER_BOUND('',#135,.T.);
#105=FACE_OUTER_BOUND('',#136,.T.);
#106=FACE_OUTER_BOUND('',#137,.T.);
#107=FACE_OUTER_BOUND('',#145,.T.);
#108=EDGE_LOOP('',(#408,#409,#410,#411));
#109=EDGE_LOOP('',(#412,#413,#414,#415));
#110=EDGE_LOOP('',(#416,#417,#418,#419));
#111=EDGE_LOOP('',(#420,#421,#422,#423));
#112=EDGE_LOOP('',(#424,#425,#426,#427));
#113=EDGE_LOOP('',(#428,#429,#430,#431));
#114=EDGE_LOOP('',(#432,#433,#434,#435));
#115=EDGE_LOOP('',(#436,#437,#438,#439));
#116=EDGE_LOOP('',(#440,#441,#442,#443));
#117=EDGE_LOOP('',(#444,#445,#446,#447));
#118=EDGE_LOOP('',(#448,#449,#450,#451));
#119=EDGE_LOOP('',(#452,#453,#454,#455));
#120=EDGE_LOOP('',(#456,#457,#458,#459));
#121=EDGE_LOOP('',(#460,#461,#462,#463));
#122=EDGE_LOOP('',(#464,#465,#466,#467));
#123=EDGE_LOOP('',(#468,#469,#470,#471));
#124=EDGE_LOOP('',(#472,#473,#474,#475));
#125=EDGE_LOOP('',(#476,#477,#478,#479));
#126=EDGE_LOOP('',(#480,#481,#482,#483));
#127=EDGE_LOOP('',(#484,#485,#486,#487));
#128=EDGE_LOOP('',(#488,#489,#490,#491));
#129=EDGE_LOOP('',(#492,#493,#494,#495));
#130=EDGE_LOOP('',(#496,#497,#498,#499));
#131=EDGE_LOOP('',(#500,#501,#502,#503));
#132=EDGE_LOOP('',(#504,#505,#506,#507));
#133=EDGE_LOOP('',(#508,#509,#510,#511));
#134=EDGE_LOOP('',(#512,#513,#514,#515));
#135=EDGE_LOOP('',(#516,#517,#518,#519));
#136=EDGE_LOOP('',(#520,#521,#522,#523));
#137=EDGE_LOOP('',(#524,#525,#526,#527,#528,#529,#530,#531,#532,#533,#534,
#535,#536));
#138=EDGE_LOOP('',(#537,#538,#539,#540,#541,#542,#543,#544,#545,#546));
#139=EDGE_LOOP('',(#547));
#140=EDGE_LOOP('',(#548));
#141=EDGE_LOOP('',(#549));
#142=EDGE_LOOP('',(#550));
#143=EDGE_LOOP('',(#551));
#144=EDGE_LOOP('',(#552));
#145=EDGE_LOOP('',(#553,#554,#555,#556,#557,#558,#559,#560,#561,#562,#563,
#564,#565));
#146=EDGE_LOOP('',(#566,#567,#568,#569,#570,#571,#572,#573,#574,#575));
#147=EDGE_LOOP('',(#576));
#148=EDGE_LOOP('',(#577));
#149=EDGE_LOOP('',(#578));
#150=EDGE_LOOP('',(#579));
#151=EDGE_LOOP('',(#580));
#152=EDGE_LOOP('',(#581));
#153=LINE('',#892,#208);
#154=LINE('',#894,#209);
#155=LINE('',#896,#210);
#156=LINE('',#897,#211);
#157=LINE('',#900,#212);
#158=LINE('',#902,#213);
#159=LINE('',#903,#214);
#160=LINE('',#909,#215);
#161=LINE('',#912,#216);
#162=LINE('',#914,#217);
#163=LINE('',#915,#218);
#164=LINE('',#921,#219);
#165=LINE('',#924,#220);
#166=LINE('',#926,#221);
#167=LINE('',#927,#222);
#168=LINE('',#930,#223);
#169=LINE('',#932,#224);
#170=LINE('',#933,#225);
#171=LINE('',#939,#226);
#172=LINE('',#942,#227);
#173=LINE('',#944,#228);
#174=LINE('',#945,#229);
#175=LINE('',#953,#230);
#176=LINE('',#959,#231);
#177=LINE('',#965,#232);
#178=LINE('',#971,#233);
#179=LINE('',#977,#234);
#180=LINE('',#983,#235);
#181=LINE('',#988,#236);
#182=LINE('',#990,#237);
#183=LINE('',#992,#238);
#184=LINE('',#993,#239);
#185=LINE('',#999,#240);
#186=LINE('',#1002,#241);
#187=LINE('',#1004,#242);
#188=LINE('',#1005,#243);
#189=LINE('',#1008,#244);
#190=LINE('',#1010,#245);
#191=LINE('',#1011,#246);
#192=LINE('',#1017,#247);
#193=LINE('',#1020,#248);
#194=LINE('',#1022,#249);
#195=LINE('',#1023,#250);
#196=LINE('',#1029,#251);
#197=LINE('',#1032,#252);
#198=LINE('',#1034,#253);
#199=LINE('',#1035,#254);
#200=LINE('',#1041,#255);
#201=LINE('',#1044,#256);
#202=LINE('',#1046,#257);
#203=LINE('',#1047,#258);
#204=LINE('',#1053,#259);
#205=LINE('',#1056,#260);
#206=LINE('',#1058,#261);
#207=LINE('',#1059,#262);
#208=VECTOR('',#709,10.);
#209=VECTOR('',#710,10.);
#210=VECTOR('',#711,10.);
#211=VECTOR('',#712,10.);
#212=VECTOR('',#715,10.);
#213=VECTOR('',#716,10.);
#214=VECTOR('',#717,10.);
#215=VECTOR('',#724,10.);
#216=VECTOR('',#727,10.);
#217=VECTOR('',#728,10.);
#218=VECTOR('',#729,10.);
#219=VECTOR('',#736,10.);
#220=VECTOR('',#739,10.);
#221=VECTOR('',#740,10.);
#222=VECTOR('',#741,10.);
#223=VECTOR('',#744,10.);
#224=VECTOR('',#745,10.);
#225=VECTOR('',#746,10.);
#226=VECTOR('',#753,10.);
#227=VECTOR('',#756,10.);
#228=VECTOR('',#757,10.);
#229=VECTOR('',#758,10.);
#230=VECTOR('',#769,1.);
#231=VECTOR('',#776,1.25);
#232=VECTOR('',#783,1.);
#233=VECTOR('',#790,1.);
#234=VECTOR('',#797,1.25);
#235=VECTOR('',#804,1.);
#236=VECTOR('',#809,10.);
#237=VECTOR('',#810,10.);
#238=VECTOR('',#811,10.);
#239=VECTOR('',#812,10.);
#240=VECTOR('',#819,10.);
#241=VECTOR('',#822,10.);
#242=VECTOR('',#823,10.);
#243=VECTOR('',#824,10.);
#244=VECTOR('',#827,10.);
#245=VECTOR('',#828,10.);
#246=VECTOR('',#829,10.);
#247=VECTOR('',#836,10.);
#248=VECTOR('',#839,10.);
#249=VECTOR('',#840,10.);
#250=VECTOR('',#841,10.);
#251=VECTOR('',#848,10.);
#252=VECTOR('',#851,10.);
#253=VECTOR('',#852,10.);
#254=VECTOR('',#853,10.);
#255=VECTOR('',#860,10.);
#256=VECTOR('',#863,10.);
#257=VECTOR('',#864,10.);
#258=VECTOR('',#865,10.);
#259=VECTOR('',#872,10.);
#260=VECTOR('',#875,10.);
#261=VECTOR('',#876,10.);
#262=VECTOR('',#877,10.);
#263=VERTEX_POINT('',#890);
#264=VERTEX_POINT('',#891);
#265=VERTEX_POINT('',#893);
#266=VERTEX_POINT('',#895);
#267=VERTEX_POINT('',#899);
#268=VERTEX_POINT('',#901);
#269=VERTEX_POINT('',#905);
#270=VERTEX_POINT('',#907);
#271=VERTEX_POINT('',#911);
#272=VERTEX_POINT('',#913);
#273=VERTEX_POINT('',#917);
#274=VERTEX_POINT('',#919);
#275=VERTEX_POINT('',#923);
#276=VERTEX_POINT('',#925);
#277=VERTEX_POINT('',#929);
#278=VERTEX_POINT('',#931);
#279=VERTEX_POINT('',#935);
#280=VERTEX_POINT('',#937);
#281=VERTEX_POINT('',#941);
#282=VERTEX_POINT('',#943);
#283=VERTEX_POINT('',#950);
#284=VERTEX_POINT('',#952);
#285=VERTEX_POINT('',#956);
#286=VERTEX_POINT('',#958);
#287=VERTEX_POINT('',#962);
#288=VERTEX_POINT('',#964);
#289=VERTEX_POINT('',#968);
#290=VERTEX_POINT('',#970);
#291=VERTEX_POINT('',#974);
#292=VERTEX_POINT('',#976);
#293=VERTEX_POINT('',#980);
#294=VERTEX_POINT('',#982);
#295=VERTEX_POINT('',#986);
#296=VERTEX_POINT('',#987);
#297=VERTEX_POINT('',#989);
#298=VERTEX_POINT('',#991);
#299=VERTEX_POINT('',#995);
#300=VERTEX_POINT('',#997);
#301=VERTEX_POINT('',#1001);
#302=VERTEX_POINT('',#1003);
#303=VERTEX_POINT('',#1007);
#304=VERTEX_POINT('',#1009);
#305=VERTEX_POINT('',#1013);
#306=VERTEX_POINT('',#1015);
#307=VERTEX_POINT('',#1019);
#308=VERTEX_POINT('',#1021);
#309=VERTEX_POINT('',#1025);
#310=VERTEX_POINT('',#1027);
#311=VERTEX_POINT('',#1031);
#312=VERTEX_POINT('',#1033);
#313=VERTEX_POINT('',#1037);
#314=VERTEX_POINT('',#1039);
#315=VERTEX_POINT('',#1043);
#316=VERTEX_POINT('',#1045);
#317=VERTEX_POINT('',#1049);
#318=VERTEX_POINT('',#1051);
#319=VERTEX_POINT('',#1055);
#320=VERTEX_POINT('',#1057);
#321=EDGE_CURVE('',#263,#264,#153,.T.);
#322=EDGE_CURVE('',#265,#263,#154,.T.);
#323=EDGE_CURVE('',#266,#265,#155,.T.);
#324=EDGE_CURVE('',#266,#264,#156,.T.);
#325=EDGE_CURVE('',#264,#267,#157,.T.);
#326=EDGE_CURVE('',#268,#266,#158,.T.);
#327=EDGE_CURVE('',#268,#267,#159,.T.);
#328=EDGE_CURVE('',#267,#269,#29,.T.);
#329=EDGE_CURVE('',#270,#268,#30,.T.);
#330=EDGE_CURVE('',#270,#269,#160,.T.);
#331=EDGE_CURVE('',#269,#271,#161,.T.);
#332=EDGE_CURVE('',#272,#270,#162,.T.);
#333=EDGE_CURVE('',#272,#271,#163,.T.);
#334=EDGE_CURVE('',#271,#273,#31,.T.);
#335=EDGE_CURVE('',#274,#272,#32,.T.);
#336=EDGE_CURVE('',#274,#273,#164,.T.);
#337=EDGE_CURVE('',#273,#275,#165,.T.);
#338=EDGE_CURVE('',#276,#274,#166,.T.);
#339=EDGE_CURVE('',#276,#275,#167,.T.);
#340=EDGE_CURVE('',#275,#277,#168,.T.);
#341=EDGE_CURVE('',#278,#276,#169,.T.);
#342=EDGE_CURVE('',#278,#277,#170,.T.);
#343=EDGE_CURVE('',#277,#279,#33,.T.);
#344=EDGE_CURVE('',#280,#278,#34,.T.);
#345=EDGE_CURVE('',#280,#279,#171,.T.);
#346=EDGE_CURVE('',#279,#281,#172,.T.);
#347=EDGE_CURVE('',#282,#280,#173,.T.);
#348=EDGE_CURVE('',#282,#281,#174,.T.);
#349=EDGE_CURVE('',#281,#263,#35,.T.);
#350=EDGE_CURVE('',#265,#282,#36,.T.);
#351=EDGE_CURVE('',#283,#283,#37,.T.);
#352=EDGE_CURVE('',#283,#284,#175,.T.);
#353=EDGE_CURVE('',#284,#284,#38,.T.);
#354=EDGE_CURVE('',#285,#285,#39,.T.);
#355=EDGE_CURVE('',#285,#286,#176,.T.);
#356=EDGE_CURVE('',#286,#286,#40,.T.);
#357=EDGE_CURVE('',#287,#287,#41,.T.);
#358=EDGE_CURVE('',#287,#288,#177,.T.);
#359=EDGE_CURVE('',#288,#288,#42,.T.);
#360=EDGE_CURVE('',#289,#289,#43,.T.);
#361=EDGE_CURVE('',#289,#290,#178,.T.);
#362=EDGE_CURVE('',#290,#290,#44,.T.);
#363=EDGE_CURVE('',#291,#291,#45,.T.);
#364=EDGE_CURVE('',#291,#292,#179,.T.);
#365=EDGE_CURVE('',#292,#292,#46,.T.);
#366=EDGE_CURVE('',#293,#293,#47,.T.);
#367=EDGE_CURVE('',#293,#294,#180,.T.);
#368=EDGE_CURVE('',#294,#294,#48,.T.);
#369=EDGE_CURVE('',#295,#296,#181,.T.);
#370=EDGE_CURVE('',#295,#297,#182,.T.);
#371=EDGE_CURVE('',#298,#297,#183,.T.);
#372=EDGE_CURVE('',#296,#298,#184,.T.);
#373=EDGE_CURVE('',#296,#299,#49,.T.);
#374=EDGE_CURVE('',#300,#298,#50,.T.);
#375=EDGE_CURVE('',#299,#300,#185,.T.);
#376=EDGE_CURVE('',#299,#301,#186,.T.);
#377=EDGE_CURVE('',#302,#300,#187,.T.);
#378=EDGE_CURVE('',#301,#302,#188,.T.);
#379=EDGE_CURVE('',#303,#301,#189,.T.);
#380=EDGE_CURVE('',#304,#302,#190,.T.);
#381=EDGE_CURVE('',#303,#304,#191,.T.);
#382=EDGE_CURVE('',#303,#305,#51,.T.);
#383=EDGE_CURVE('',#306,#304,#52,.T.);
#384=EDGE_CURVE('',#305,#306,#192,.T.);
#385=EDGE_CURVE('',#307,#305,#193,.T.);
#386=EDGE_CURVE('',#308,#306,#194,.T.);
#387=EDGE_CURVE('',#307,#308,#195,.T.);
#388=EDGE_CURVE('',#309,#307,#53,.T.);
#389=EDGE_CURVE('',#310,#308,#54,.T.);
#390=EDGE_CURVE('',#309,#310,#196,.T.);
#391=EDGE_CURVE('',#311,#309,#197,.T.);
#392=EDGE_CURVE('',#312,#310,#198,.T.);
#393=EDGE_CURVE('',#311,#312,#199,.T.);
#394=EDGE_CURVE('',#313,#311,#55,.T.);
#395=EDGE_CURVE('',#314,#312,#56,.T.);
#396=EDGE_CURVE('',#313,#314,#200,.T.);
#397=EDGE_CURVE('',#313,#315,#201,.T.);
#398=EDGE_CURVE('',#316,#314,#202,.T.);
#399=EDGE_CURVE('',#315,#316,#203,.T.);
#400=EDGE_CURVE('',#317,#315,#57,.T.);
#401=EDGE_CURVE('',#318,#316,#58,.T.);
#402=EDGE_CURVE('',#317,#318,#204,.T.);
#403=EDGE_CURVE('',#317,#319,#205,.T.);
#404=EDGE_CURVE('',#320,#318,#206,.T.);
#405=EDGE_CURVE('',#319,#320,#207,.T.);
#406=EDGE_CURVE('',#295,#319,#59,.T.);
#407=EDGE_CURVE('',#297,#320,#60,.T.);
#408=ORIENTED_EDGE('',*,*,#321,.F.);
#409=ORIENTED_EDGE('',*,*,#322,.F.);
#410=ORIENTED_EDGE('',*,*,#323,.F.);
#411=ORIENTED_EDGE('',*,*,#324,.T.);
#412=ORIENTED_EDGE('',*,*,#325,.F.);
#413=ORIENTED_EDGE('',*,*,#324,.F.);
#414=ORIENTED_EDGE('',*,*,#326,.F.);
#415=ORIENTED_EDGE('',*,*,#327,.T.);
#416=ORIENTED_EDGE('',*,*,#328,.F.);
#417=ORIENTED_EDGE('',*,*,#327,.F.);
#418=ORIENTED_EDGE('',*,*,#329,.F.);
#419=ORIENTED_EDGE('',*,*,#330,.T.);
#420=ORIENTED_EDGE('',*,*,#331,.F.);
#421=ORIENTED_EDGE('',*,*,#330,.F.);
#422=ORIENTED_EDGE('',*,*,#332,.F.);
#423=ORIENTED_EDGE('',*,*,#333,.T.);
#424=ORIENTED_EDGE('',*,*,#334,.F.);
#425=ORIENTED_EDGE('',*,*,#333,.F.);
#426=ORIENTED_EDGE('',*,*,#335,.F.);
#427=ORIENTED_EDGE('',*,*,#336,.T.);
#428=ORIENTED_EDGE('',*,*,#337,.F.);
#429=ORIENTED_EDGE('',*,*,#336,.F.);
#430=ORIENTED_EDGE('',*,*,#338,.F.);
#431=ORIENTED_EDGE('',*,*,#339,.T.);
#432=ORIENTED_EDGE('',*,*,#340,.F.);
#433=ORIENTED_EDGE('',*,*,#339,.F.);
#434=ORIENTED_EDGE('',*,*,#341,.F.);
#435=ORIENTED_EDGE('',*,*,#342,.T.);
#436=ORIENTED_EDGE('',*,*,#343,.F.);
#437=ORIENTED_EDGE('',*,*,#342,.F.);
#438=ORIENTED_EDGE('',*,*,#344,.F.);
#439=ORIENTED_EDGE('',*,*,#345,.T.);
#440=ORIENTED_EDGE('',*,*,#346,.F.);
#441=ORIENTED_EDGE('',*,*,#345,.F.);
#442=ORIENTED_EDGE('',*,*,#347,.F.);
#443=ORIENTED_EDGE('',*,*,#348,.T.);
#444=ORIENTED_EDGE('',*,*,#349,.F.);
#445=ORIENTED_EDGE('',*,*,#348,.F.);
#446=ORIENTED_EDGE('',*,*,#350,.F.);
#447=ORIENTED_EDGE('',*,*,#322,.T.);
#448=ORIENTED_EDGE('',*,*,#351,.F.);
#449=ORIENTED_EDGE('',*,*,#352,.T.);
#450=ORIENTED_EDGE('',*,*,#353,.T.);
#451=ORIENTED_EDGE('',*,*,#352,.F.);
#452=ORIENTED_EDGE('',*,*,#354,.F.);
#453=ORIENTED_EDGE('',*,*,#355,.T.);
#454=ORIENTED_EDGE('',*,*,#356,.T.);
#455=ORIENTED_EDGE('',*,*,#355,.F.);
#456=ORIENTED_EDGE('',*,*,#357,.F.);
#457=ORIENTED_EDGE('',*,*,#358,.T.);
#458=ORIENTED_EDGE('',*,*,#359,.T.);
#459=ORIENTED_EDGE('',*,*,#358,.F.);
#460=ORIENTED_EDGE('',*,*,#360,.F.);
#461=ORIENTED_EDGE('',*,*,#361,.T.);
#462=ORIENTED_EDGE('',*,*,#362,.T.);
#463=ORIENTED_EDGE('',*,*,#361,.F.);
#464=ORIENTED_EDGE('',*,*,#363,.F.);
#465=ORIENTED_EDGE('',*,*,#364,.T.);
#466=ORIENTED_EDGE('',*,*,#365,.T.);
#467=ORIENTED_EDGE('',*,*,#364,.F.);
#468=ORIENTED_EDGE('',*,*,#366,.F.);
#469=ORIENTED_EDGE('',*,*,#367,.T.);
#470=ORIENTED_EDGE('',*,*,#368,.T.);
#471=ORIENTED_EDGE('',*,*,#367,.F.);
#472=ORIENTED_EDGE('',*,*,#369,.F.);
#473=ORIENTED_EDGE('',*,*,#370,.T.);
#474=ORIENTED_EDGE('',*,*,#371,.F.);
#475=ORIENTED_EDGE('',*,*,#372,.F.);
#476=ORIENTED_EDGE('',*,*,#373,.F.);
#477=ORIENTED_EDGE('',*,*,#372,.T.);
#478=ORIENTED_EDGE('',*,*,#374,.F.);
#479=ORIENTED_EDGE('',*,*,#375,.F.);
#480=ORIENTED_EDGE('',*,*,#376,.F.);
#481=ORIENTED_EDGE('',*,*,#375,.T.);
#482=ORIENTED_EDGE('',*,*,#377,.F.);
#483=ORIENTED_EDGE('',*,*,#378,.F.);
#484=ORIENTED_EDGE('',*,*,#379,.T.);
#485=ORIENTED_EDGE('',*,*,#378,.T.);
#486=ORIENTED_EDGE('',*,*,#380,.F.);
#487=ORIENTED_EDGE('',*,*,#381,.F.);
#488=ORIENTED_EDGE('',*,*,#382,.F.);
#489=ORIENTED_EDGE('',*,*,#381,.T.);
#490=ORIENTED_EDGE('',*,*,#383,.F.);
#491=ORIENTED_EDGE('',*,*,#384,.F.);
#492=ORIENTED_EDGE('',*,*,#385,.T.);
#493=ORIENTED_EDGE('',*,*,#384,.T.);
#494=ORIENTED_EDGE('',*,*,#386,.F.);
#495=ORIENTED_EDGE('',*,*,#387,.F.);
#496=ORIENTED_EDGE('',*,*,#388,.T.);
#497=ORIENTED_EDGE('',*,*,#387,.T.);
#498=ORIENTED_EDGE('',*,*,#389,.F.);
#499=ORIENTED_EDGE('',*,*,#390,.F.);
#500=ORIENTED_EDGE('',*,*,#391,.T.);
#501=ORIENTED_EDGE('',*,*,#390,.T.);
#502=ORIENTED_EDGE('',*,*,#392,.F.);
#503=ORIENTED_EDGE('',*,*,#393,.F.);
#504=ORIENTED_EDGE('',*,*,#394,.T.);
#505=ORIENTED_EDGE('',*,*,#393,.T.);
#506=ORIENTED_EDGE('',*,*,#395,.F.);
#507=ORIENTED_EDGE('',*,*,#396,.F.);
#508=ORIENTED_EDGE('',*,*,#397,.F.);
#509=ORIENTED_EDGE('',*,*,#396,.T.);
#510=ORIENTED_EDGE('',*,*,#398,.F.);
#511=ORIENTED_EDGE('',*,*,#399,.F.);
#512=ORIENTED_EDGE('',*,*,#400,.T.);
#513=ORIENTED_EDGE('',*,*,#399,.T.);
#514=ORIENTED_EDGE('',*,*,#401,.F.);
#515=ORIENTED_EDGE('',*,*,#402,.F.);
#516=ORIENTED_EDGE('',*,*,#403,.F.);
#517=ORIENTED_EDGE('',*,*,#402,.T.);
#518=ORIENTED_EDGE('',*,*,#404,.F.);
#519=ORIENTED_EDGE('',*,*,#405,.F.);
#520=ORIENTED_EDGE('',*,*,#406,.T.);
#521=ORIENTED_EDGE('',*,*,#405,.T.);
#522=ORIENTED_EDGE('',*,*,#407,.F.);
#523=ORIENTED_EDGE('',*,*,#370,.F.);
#524=ORIENTED_EDGE('',*,*,#407,.T.);
#525=ORIENTED_EDGE('',*,*,#404,.T.);
#526=ORIENTED_EDGE('',*,*,#401,.T.);
#527=ORIENTED_EDGE('',*,*,#398,.T.);
#528=ORIENTED_EDGE('',*,*,#395,.T.);
#529=ORIENTED_EDGE('',*,*,#392,.T.);
#530=ORIENTED_EDGE('',*,*,#389,.T.);
#531=ORIENTED_EDGE('',*,*,#386,.T.);
#532=ORIENTED_EDGE('',*,*,#383,.T.);
#533=ORIENTED_EDGE('',*,*,#380,.T.);
#534=ORIENTED_EDGE('',*,*,#377,.T.);
#535=ORIENTED_EDGE('',*,*,#374,.T.);
#536=ORIENTED_EDGE('',*,*,#371,.T.);
#537=ORIENTED_EDGE('',*,*,#337,.T.);
#538=ORIENTED_EDGE('',*,*,#340,.T.);
#539=ORIENTED_EDGE('',*,*,#343,.T.);
#540=ORIENTED_EDGE('',*,*,#346,.T.);
#541=ORIENTED_EDGE('',*,*,#349,.T.);
#542=ORIENTED_EDGE('',*,*,#321,.T.);
#543=ORIENTED_EDGE('',*,*,#325,.T.);
#544=ORIENTED_EDGE('',*,*,#328,.T.);
#545=ORIENTED_EDGE('',*,*,#331,.T.);
#546=ORIENTED_EDGE('',*,*,#334,.T.);
#547=ORIENTED_EDGE('',*,*,#366,.T.);
#548=ORIENTED_EDGE('',*,*,#363,.T.);
#549=ORIENTED_EDGE('',*,*,#360,.T.);
#550=ORIENTED_EDGE('',*,*,#357,.T.);
#551=ORIENTED_EDGE('',*,*,#354,.T.);
#552=ORIENTED_EDGE('',*,*,#351,.T.);
#553=ORIENTED_EDGE('',*,*,#406,.F.);
#554=ORIENTED_EDGE('',*,*,#369,.T.);
#555=ORIENTED_EDGE('',*,*,#373,.T.);
#556=ORIENTED_EDGE('',*,*,#376,.T.);
#557=ORIENTED_EDGE('',*,*,#379,.F.);
#558=ORIENTED_EDGE('',*,*,#382,.T.);
#559=ORIENTED_EDGE('',*,*,#385,.F.);
#560=ORIENTED_EDGE('',*,*,#388,.F.);
#561=ORIENTED_EDGE('',*,*,#391,.F.);
#562=ORIENTED_EDGE('',*,*,#394,.F.);
#563=ORIENTED_EDGE('',*,*,#397,.T.);
#564=ORIENTED_EDGE('',*,*,#400,.F.);
#565=ORIENTED_EDGE('',*,*,#403,.T.);
#566=ORIENTED_EDGE('',*,*,#338,.T.);
#567=ORIENTED_EDGE('',*,*,#335,.T.);
#568=ORIENTED_EDGE('',*,*,#332,.T.);
#569=ORIENTED_EDGE('',*,*,#329,.T.);
#570=ORIENTED_EDGE('',*,*,#326,.T.);
#571=ORIENTED_EDGE('',*,*,#323,.T.);
#572=ORIENTED_EDGE('',*,*,#350,.T.);
#573=ORIENTED_EDGE('',*,*,#347,.T.);
#574=ORIENTED_EDGE('',*,*,#344,.T.);
#575=ORIENTED_EDGE('',*,*,#341,.T.);
#576=ORIENTED_EDGE('',*,*,#368,.F.);
#577=ORIENTED_EDGE('',*,*,#365,.F.);
#578=ORIENTED_EDGE('',*,*,#362,.F.);
#579=ORIENTED_EDGE('',*,*,#359,.F.);
#580=ORIENTED_EDGE('',*,*,#356,.F.);
#581=ORIENTED_EDGE('',*,*,#353,.F.);
#582=PLANE('',#642);
#583=PLANE('',#643);
#584=PLANE('',#647);
#585=PLANE('',#651);
#586=PLANE('',#652);
#587=PLANE('',#656);
#588=PLANE('',#678);
#589=PLANE('',#682);
#590=PLANE('',#683);
#591=PLANE('',#687);
#592=PLANE('',#691);
#593=PLANE('',#695);
#594=PLANE('',#699);
#595=PLANE('',#703);
#596=PLANE('',#704);
#597=ADVANCED_FACE('',(#77),#582,.F.);
#598=ADVANCED_FACE('',(#78),#583,.F.);
#599=ADVANCED_FACE('',(#79),#61,.F.);
#600=ADVANCED_FACE('',(#80),#584,.F.);
#601=ADVANCED_FACE('',(#81),#62,.F.);
#602=ADVANCED_FACE('',(#82),#585,.F.);
#603=ADVANCED_FACE('',(#83),#586,.F.);
#604=ADVANCED_FACE('',(#84),#63,.F.);
#605=ADVANCED_FACE('',(#85),#587,.F.);
#606=ADVANCED_FACE('',(#86),#64,.F.);
#607=ADVANCED_FACE('',(#87),#65,.F.);
#608=ADVANCED_FACE('',(#88),#66,.F.);
#609=ADVANCED_FACE('',(#89),#67,.F.);
#610=ADVANCED_FACE('',(#90),#68,.F.);
#611=ADVANCED_FACE('',(#91),#69,.F.);
#612=ADVANCED_FACE('',(#92),#70,.F.);
#613=ADVANCED_FACE('',(#93),#588,.T.);
#614=ADVANCED_FACE('',(#94),#71,.F.);
#615=ADVANCED_FACE('',(#95),#589,.T.);
#616=ADVANCED_FACE('',(#96),#590,.T.);
#617=ADVANCED_FACE('',(#97),#72,.F.);
#618=ADVANCED_FACE('',(#98),#591,.T.);
#619=ADVANCED_FACE('',(#99),#73,.T.);
#620=ADVANCED_FACE('',(#100),#592,.T.);
#621=ADVANCED_FACE('',(#101),#74,.T.);
#622=ADVANCED_FACE('',(#102),#593,.T.);
#623=ADVANCED_FACE('',(#103),#75,.T.);
#624=ADVANCED_FACE('',(#104),#594,.T.);
#625=ADVANCED_FACE('',(#105),#76,.T.);
#626=ADVANCED_FACE('',(#106,#15,#16,#17,#18,#19,#20,#21),#595,.T.);
#627=ADVANCED_FACE('',(#107,#22,#23,#24,#25,#26,#27,#28),#596,.F.);
#628=CLOSED_SHELL('',(#597,#598,#599,#600,#601,#602,#603,#604,#605,#606,
#607,#608,#609,#610,#611,#612,#613,#614,#615,#616,#617,#618,#619,#620,#621,
#622,#623,#624,#625,#626,#627));
#629=DERIVED_UNIT_ELEMENT(#631,1.);
#630=DERIVED_UNIT_ELEMENT(#1070,-3.);
#631=(
MASS_UNIT()
NAMED_UNIT(*)
SI_UNIT(.KILO.,.GRAM.)
);
#632=DERIVED_UNIT((#629,#630));
#633=MEASURE_REPRESENTATION_ITEM('density measure',
POSITIVE_RATIO_MEASURE(7850.),#632);
#634=PROPERTY_DEFINITION_REPRESENTATION(#639,#636);
#635=PROPERTY_DEFINITION_REPRESENTATION(#640,#637);
#636=REPRESENTATION('material name',(#638),#1067);
#637=REPRESENTATION('density',(#633),#1067);
#638=DESCRIPTIVE_REPRESENTATION_ITEM('\X2\92FC\X0\','\X2\92FC\X0\');
#639=PROPERTY_DEFINITION('material property','material name',#1077);
#640=PROPERTY_DEFINITION('material property','density of part',#1077);
#641=AXIS2_PLACEMENT_3D('',#888,#705,#706);
#642=AXIS2_PLACEMENT_3D('',#889,#707,#708);
#643=AXIS2_PLACEMENT_3D('',#898,#713,#714);
#644=AXIS2_PLACEMENT_3D('',#904,#718,#719);
#645=AXIS2_PLACEMENT_3D('',#906,#720,#721);
#646=AXIS2_PLACEMENT_3D('',#908,#722,#723);
#647=AXIS2_PLACEMENT_3D('',#910,#725,#726);
#648=AXIS2_PLACEMENT_3D('',#916,#730,#731);
#649=AXIS2_PLACEMENT_3D('',#918,#732,#733);
#650=AXIS2_PLACEMENT_3D('',#920,#734,#735);
#651=AXIS2_PLACEMENT_3D('',#922,#737,#738);
#652=AXIS2_PLACEMENT_3D('',#928,#742,#743);
#653=AXIS2_PLACEMENT_3D('',#934,#747,#748);
#654=AXIS2_PLACEMENT_3D('',#936,#749,#750);
#655=AXIS2_PLACEMENT_3D('',#938,#751,#752);
#656=AXIS2_PLACEMENT_3D('',#940,#754,#755);
#657=AXIS2_PLACEMENT_3D('',#946,#759,#760);
#658=AXIS2_PLACEMENT_3D('',#947,#761,#762);
#659=AXIS2_PLACEMENT_3D('',#948,#763,#764);
#660=AXIS2_PLACEMENT_3D('',#949,#765,#766);
#661=AXIS2_PLACEMENT_3D('',#951,#767,#768);
#662=AXIS2_PLACEMENT_3D('',#954,#770,#771);
#663=AXIS2_PLACEMENT_3D('',#955,#772,#773);
#664=AXIS2_PLACEMENT_3D('',#957,#774,#775);
#665=AXIS2_PLACEMENT_3D('',#960,#777,#778);
#666=AXIS2_PLACEMENT_3D('',#961,#779,#780);
#667=AXIS2_PLACEMENT_3D('',#963,#781,#782);
#668=AXIS2_PLACEMENT_3D('',#966,#784,#785);
#669=AXIS2_PLACEMENT_3D('',#967,#786,#787);
#670=AXIS2_PLACEMENT_3D('',#969,#788,#789);
#671=AXIS2_PLACEMENT_3D('',#972,#791,#792);
#672=AXIS2_PLACEMENT_3D('',#973,#793,#794);
#673=AXIS2_PLACEMENT_3D('',#975,#795,#796);
#674=AXIS2_PLACEMENT_3D('',#978,#798,#799);
#675=AXIS2_PLACEMENT_3D('',#979,#800,#801);
#676=AXIS2_PLACEMENT_3D('',#981,#802,#803);
#677=AXIS2_PLACEMENT_3D('',#984,#805,#806);
#678=AXIS2_PLACEMENT_3D('',#985,#807,#808);
#679=AXIS2_PLACEMENT_3D('',#994,#813,#814);
#680=AXIS2_PLACEMENT_3D('',#996,#815,#816);
#681=AXIS2_PLACEMENT_3D('',#998,#817,#818);
#682=AXIS2_PLACEMENT_3D('',#1000,#820,#821);
#683=AXIS2_PLACEMENT_3D('',#1006,#825,#826);
#684=AXIS2_PLACEMENT_3D('',#1012,#830,#831);
#685=AXIS2_PLACEMENT_3D('',#1014,#832,#833);
#686=AXIS2_PLACEMENT_3D('',#1016,#834,#835);
#687=AXIS2_PLACEMENT_3D('',#1018,#837,#838);
#688=AXIS2_PLACEMENT_3D('',#1024,#842,#843);
#689=AXIS2_PLACEMENT_3D('',#1026,#844,#845);
#690=AXIS2_PLACEMENT_3D('',#1028,#846,#847);
#691=AXIS2_PLACEMENT_3D('',#1030,#849,#850);
#692=AXIS2_PLACEMENT_3D('',#1036,#854,#855);
#693=AXIS2_PLACEMENT_3D('',#1038,#856,#857);
#694=AXIS2_PLACEMENT_3D('',#1040,#858,#859);
#695=AXIS2_PLACEMENT_3D('',#1042,#861,#862);
#696=AXIS2_PLACEMENT_3D('',#1048,#866,#867);
#697=AXIS2_PLACEMENT_3D('',#1050,#868,#869);
#698=AXIS2_PLACEMENT_3D('',#1052,#870,#871);
#699=AXIS2_PLACEMENT_3D('',#1054,#873,#874);
#700=AXIS2_PLACEMENT_3D('',#1060,#878,#879);
#701=AXIS2_PLACEMENT_3D('',#1061,#880,#881);
#702=AXIS2_PLACEMENT_3D('',#1062,#882,#883);
#703=AXIS2_PLACEMENT_3D('',#1063,#884,#885);
#704=AXIS2_PLACEMENT_3D('',#1064,#886,#887);
#705=DIRECTION('axis',(0.,0.,1.));
#706=DIRECTION('refdir',(1.,0.,0.));
#707=DIRECTION('center_axis',(1.98684416573404E-8,0.,-1.));
#708=DIRECTION('ref_axis',(-1.,0.,-1.98684416573404E-8));
#709=DIRECTION('',(1.,0.,1.98684416573404E-8));
#710=DIRECTION('',(0.,1.,0.));
#711=DIRECTION('',(-1.,0.,-1.98684416573404E-8));
#712=DIRECTION('',(0.,1.,0.));
#713=DIRECTION('center_axis',(-1.98684416573404E-8,0.,-1.));
#714=DIRECTION('ref_axis',(-1.,0.,1.98684416573404E-8));
#715=DIRECTION('',(1.,0.,-1.98684416573404E-8));
#716=DIRECTION('',(-1.,0.,1.98684416573404E-8));
#717=DIRECTION('',(0.,1.,0.));
#718=DIRECTION('center_axis',(0.,1.,0.));
#719=DIRECTION('ref_axis',(0.999999999999305,0.,-1.17905859301757E-6));
#720=DIRECTION('center_axis',(0.,-1.,0.));
#721=DIRECTION('ref_axis',(0.999999999999305,0.,-1.17905859301757E-6));
#722=DIRECTION('center_axis',(0.,1.,0.));
#723=DIRECTION('ref_axis',(0.999999999999305,0.,-1.17905859301757E-6));
#724=DIRECTION('',(0.,1.,0.));
#725=DIRECTION('center_axis',(0.999999999998944,0.,1.45361420199199E-6));
#726=DIRECTION('ref_axis',(1.45361420199199E-6,0.,-0.999999999998943));
#727=DIRECTION('',(-1.45361420199199E-6,0.,0.999999999998943));
#728=DIRECTION('',(1.45361420199199E-6,0.,-0.999999999998943));
#729=DIRECTION('',(0.,1.,0.));
#730=DIRECTION('center_axis',(0.,1.,0.));
#731=DIRECTION('ref_axis',(4.47035216716802E-8,0.,0.999999999999999));
#732=DIRECTION('center_axis',(0.,-1.,0.));
#733=DIRECTION('ref_axis',(4.47035216716802E-8,0.,0.999999999999999));
#734=DIRECTION('center_axis',(0.,1.,0.));
#735=DIRECTION('ref_axis',(4.47035216716802E-8,0.,0.999999999999999));
#736=DIRECTION('',(0.,1.,0.));
#737=DIRECTION('center_axis',(3.83913286176978E-7,0.,0.999999999999926));
#738=DIRECTION('ref_axis',(0.999999999999926,0.,-3.83913286176978E-7));
#739=DIRECTION('',(-0.999999999999926,0.,3.83913286176978E-7));
#740=DIRECTION('',(0.999999999999926,0.,-3.83913286176978E-7));
#741=DIRECTION('',(0.,1.,0.));
#742=DIRECTION('center_axis',(-3.83913286300336E-7,0.,0.999999999999926));
#743=DIRECTION('ref_axis',(0.999999999999926,0.,3.83913286300336E-7));
#744=DIRECTION('',(-0.999999999999926,0.,-3.83913286300336E-7));
#745=DIRECTION('',(0.999999999999926,0.,3.83913286300336E-7));
#746=DIRECTION('',(0.,1.,0.));
#747=DIRECTION('center_axis',(0.,1.,0.));
#748=DIRECTION('ref_axis',(-0.99999999999932,0.,-1.16664096672203E-6));
#749=DIRECTION('center_axis',(0.,-1.,0.));
#750=DIRECTION('ref_axis',(-0.99999999999932,0.,-1.16664096672203E-6));
#751=DIRECTION('center_axis',(0.,1.,0.));
#752=DIRECTION('ref_axis',(-0.99999999999932,0.,-1.16664096672203E-6));
#753=DIRECTION('',(0.,1.,0.));
#754=DIRECTION('center_axis',(-0.999999999998944,0.,1.45361420199199E-6));
#755=DIRECTION('ref_axis',(1.45361420199199E-6,0.,0.999999999998943));
#756=DIRECTION('',(-1.45361420199199E-6,0.,-0.999999999998943));
#757=DIRECTION('',(1.45361420199199E-6,0.,0.999999999998943));
#758=DIRECTION('',(0.,1.,0.));
#759=DIRECTION('center_axis',(0.,1.,0.));
#760=DIRECTION('ref_axis',(-4.47034197806997E-8,0.,-0.999999999999999));
#761=DIRECTION('center_axis',(0.,-1.,0.));
#762=DIRECTION('ref_axis',(-4.47034197806997E-8,0.,-0.999999999999999));
#763=DIRECTION('center_axis',(0.,1.,0.));
#764=DIRECTION('ref_axis',(-4.47034197806997E-8,0.,-0.999999999999999));
#765=DIRECTION('center_axis',(0.,1.,0.));
#766=DIRECTION('ref_axis',(-1.,0.,0.));
#767=DIRECTION('center_axis',(0.,-1.,0.));
#768=DIRECTION('ref_axis',(-1.,0.,0.));
#769=DIRECTION('',(0.,-1.,0.));
#770=DIRECTION('center_axis',(0.,-1.,0.));
#771=DIRECTION('ref_axis',(-1.,0.,0.));
#772=DIRECTION('center_axis',(0.,1.,0.));
#773=DIRECTION('ref_axis',(-1.,0.,0.));
#774=DIRECTION('center_axis',(0.,-1.,0.));
#775=DIRECTION('ref_axis',(-1.,0.,0.));
#776=DIRECTION('',(0.,-1.,0.));
#777=DIRECTION('center_axis',(0.,-1.,0.));
#778=DIRECTION('ref_axis',(-1.,0.,0.));
#779=DIRECTION('center_axis',(0.,1.,0.));
#780=DIRECTION('ref_axis',(-1.,0.,0.));
#781=DIRECTION('center_axis',(0.,-1.,0.));
#782=DIRECTION('ref_axis',(-1.,0.,0.));
#783=DIRECTION('',(0.,-1.,0.));
#784=DIRECTION('center_axis',(0.,-1.,0.));
#785=DIRECTION('ref_axis',(-1.,0.,0.));
#786=DIRECTION('center_axis',(0.,1.,0.));
#787=DIRECTION('ref_axis',(-1.,0.,0.));
#788=DIRECTION('center_axis',(0.,-1.,0.));
#789=DIRECTION('ref_axis',(-1.,0.,0.));
#790=DIRECTION('',(0.,-1.,0.));
#791=DIRECTION('center_axis',(0.,-1.,0.));
#792=DIRECTION('ref_axis',(-1.,0.,0.));
#793=DIRECTION('center_axis',(0.,1.,0.));
#794=DIRECTION('ref_axis',(-1.,0.,0.));
#795=DIRECTION('center_axis',(0.,-1.,0.));
#796=DIRECTION('ref_axis',(-1.,0.,0.));
#797=DIRECTION('',(0.,-1.,0.));
#798=DIRECTION('center_axis',(0.,-1.,0.));
#799=DIRECTION('ref_axis',(-1.,0.,0.));
#800=DIRECTION('center_axis',(0.,1.,0.));
#801=DIRECTION('ref_axis',(-1.,0.,0.));
#802=DIRECTION('center_axis',(0.,-1.,0.));
#803=DIRECTION('ref_axis',(-1.,0.,0.));
#804=DIRECTION('',(0.,-1.,0.));
#805=DIRECTION('center_axis',(0.,-1.,0.));
#806=DIRECTION('ref_axis',(-1.,0.,0.));
#807=DIRECTION('center_axis',(-1.,0.,0.));
#808=DIRECTION('ref_axis',(0.,0.,1.));
#809=DIRECTION('',(0.,0.,-1.));
#810=DIRECTION('',(0.,1.,0.));
#811=DIRECTION('',(0.,0.,1.));
#812=DIRECTION('',(0.,1.,0.));
#813=DIRECTION('center_axis',(0.,1.,0.));
#814=DIRECTION('ref_axis',(1.,0.,9.25185853854297E-17));
#815=DIRECTION('center_axis',(0.,1.,0.));
#816=DIRECTION('ref_axis',(1.,0.,9.25185853854297E-17));
#817=DIRECTION('center_axis',(0.,-1.,0.));
#818=DIRECTION('ref_axis',(1.,0.,9.25185853854297E-17));
#819=DIRECTION('',(0.,1.,0.));
#820=DIRECTION('center_axis',(7.62029902202683E-7,0.,0.99999999999971));
#821=DIRECTION('ref_axis',(0.99999999999971,0.,-7.62029902202683E-7));
#822=DIRECTION('',(-0.99999999999971,0.,7.62029902202683E-7));
#823=DIRECTION('',(0.99999999999971,0.,-7.62029902202683E-7));
#824=DIRECTION('',(0.,1.,0.));
#825=DIRECTION('center_axis',(-7.62029902310622E-7,0.,0.99999999999971));
#826=DIRECTION('ref_axis',(0.99999999999971,0.,7.62029902310622E-7));
#827=DIRECTION('',(0.99999999999971,0.,7.62029902310622E-7));
#828=DIRECTION('',(0.99999999999971,0.,7.62029902310622E-7));
#829=DIRECTION('',(0.,1.,0.));
#830=DIRECTION('center_axis',(0.,1.,0.));
#831=DIRECTION('ref_axis',(7.62029956913674E-7,0.,-0.99999999999971));
#832=DIRECTION('center_axis',(0.,1.,0.));
#833=DIRECTION('ref_axis',(7.62029956913674E-7,0.,-0.99999999999971));
#834=DIRECTION('center_axis',(0.,-1.,0.));
#835=DIRECTION('ref_axis',(7.62029956913674E-7,0.,-0.99999999999971));
#836=DIRECTION('',(0.,1.,0.));
#837=DIRECTION('center_axis',(1.,0.,0.));
#838=DIRECTION('ref_axis',(0.,0.,-1.));
#839=DIRECTION('',(0.,0.,-1.));
#840=DIRECTION('',(0.,0.,-1.));
#841=DIRECTION('',(0.,1.,0.));
#842=DIRECTION('center_axis',(0.,1.,0.));
#843=DIRECTION('ref_axis',(-1.,0.,0.));
#844=DIRECTION('center_axis',(0.,1.,0.));
#845=DIRECTION('ref_axis',(-1.,0.,0.));
#846=DIRECTION('center_axis',(0.,1.,0.));
#847=DIRECTION('ref_axis',(-1.,0.,0.));
#848=DIRECTION('',(0.,1.,0.));
#849=DIRECTION('center_axis',(-1.,0.,9.86864910777917E-17));
#850=DIRECTION('ref_axis',(9.86864910777917E-17,0.,1.));
#851=DIRECTION('',(9.86864910777917E-17,0.,1.));
#852=DIRECTION('',(9.86864910777917E-17,0.,1.));
#853=DIRECTION('',(0.,1.,0.));
#854=DIRECTION('center_axis',(0.,1.,0.));
#855=DIRECTION('ref_axis',(-1.,0.,0.));
#856=DIRECTION('center_axis',(0.,1.,0.));
#857=DIRECTION('ref_axis',(-1.,0.,0.));
#858=DIRECTION('center_axis',(0.,1.,0.));
#859=DIRECTION('ref_axis',(-1.,0.,0.));
#860=DIRECTION('',(0.,1.,0.));
#861=DIRECTION('center_axis',(-6.57910016174847E-16,0.,-1.));
#862=DIRECTION('ref_axis',(-1.,0.,6.57910016174847E-16));
#863=DIRECTION('',(1.,0.,-6.57910016174847E-16));
#864=DIRECTION('',(-1.,0.,6.57910016174847E-16));
#865=DIRECTION('',(0.,1.,0.));
#866=DIRECTION('center_axis',(0.,1.,0.));
#867=DIRECTION('ref_axis',(-1.,0.,0.));
#868=DIRECTION('center_axis',(0.,1.,0.));
#869=DIRECTION('ref_axis',(-1.,0.,0.));
#870=DIRECTION('center_axis',(0.,1.,0.));
#871=DIRECTION('ref_axis',(-1.,0.,0.));
#872=DIRECTION('',(0.,1.,0.));
#873=DIRECTION('center_axis',(1.,0.,2.96059473233375E-16));
#874=DIRECTION('ref_axis',(2.96059473233375E-16,0.,-1.));
#875=DIRECTION('',(-2.96059473233375E-16,0.,1.));
#876=DIRECTION('',(2.96059473233375E-16,0.,-1.));
#877=DIRECTION('',(0.,1.,0.));
#878=DIRECTION('center_axis',(0.,1.,0.));
#879=DIRECTION('ref_axis',(-1.,0.,0.));
#880=DIRECTION('center_axis',(0.,1.,0.));
#881=DIRECTION('ref_axis',(-1.,0.,0.));
#882=DIRECTION('center_axis',(0.,1.,0.));
#883=DIRECTION('ref_axis',(-1.,0.,0.));
#884=DIRECTION('center_axis',(0.,1.,0.));
#885=DIRECTION('ref_axis',(-1.,0.,0.));
#886=DIRECTION('center_axis',(0.,1.,0.));
#887=DIRECTION('ref_axis',(-1.,0.,0.));
#888=CARTESIAN_POINT('',(0.,0.,0.));
#889=CARTESIAN_POINT('Origin',(0.,10.,-25.9999932236713));
#890=CARTESIAN_POINT('',(-18.0000002682206,14.,-25.9999935813032));
#891=CARTESIAN_POINT('',(2.22044604925031E-15,14.,-25.9999932236713));
#892=CARTESIAN_POINT('',(1.83783020233299E-7,14.,-25.9999932236713));
#893=CARTESIAN_POINT('',(-18.0000002682206,10.,-25.9999935813032));
#894=CARTESIAN_POINT('',(-18.0000002682206,10.,-25.9999935813032));
#895=CARTESIAN_POINT('',(2.22044604925031E-15,10.,-25.9999932236713));
#896=CARTESIAN_POINT('',(1.83783020233299E-7,10.,-25.9999932236713));
#897=CARTESIAN_POINT('',(2.22044604925031E-15,10.,-25.9999932236713));
#898=CARTESIAN_POINT('Origin',(18.0000002682206,10.,-25.9999935813032));
#899=CARTESIAN_POINT('',(18.0000002682206,14.,-25.9999935813032));
#900=CARTESIAN_POINT('',(8.99999995032729,14.,-25.9999934024872));
#901=CARTESIAN_POINT('',(18.0000002682206,10.,-25.9999935813032));
#902=CARTESIAN_POINT('',(8.99999995032729,10.,-25.9999934024872));
#903=CARTESIAN_POINT('',(18.0000002682206,10.,-25.9999935813032));
#904=CARTESIAN_POINT('Origin',(18.0000000000001,10.,-19.9999932236712));
#905=CARTESIAN_POINT('',(24.0000003576279,14.,-20.0000002980232));
#906=CARTESIAN_POINT('Origin',(18.0000000000001,14.,-19.9999932236712));
#907=CARTESIAN_POINT('',(24.0000003576279,10.,-20.0000002980232));
#908=CARTESIAN_POINT('Origin',(18.0000000000001,10.,-19.9999932236712));
#909=CARTESIAN_POINT('',(24.0000003576279,10.,-20.0000002980232));
#910=CARTESIAN_POINT('Origin',(23.9999930895567,10.,-15.0000002235089));
#911=CARTESIAN_POINT('',(23.9999930895567,14.,-15.0000002235089));
#912=CARTESIAN_POINT('',(23.999987638478,14.,-11.249982668397));
#913=CARTESIAN_POINT('',(23.9999930895567,10.,-15.0000002235089));
#914=CARTESIAN_POINT('',(23.999987638478,10.,-11.249982668397));
#915=CARTESIAN_POINT('',(23.9999930895567,10.,-15.0000002235089));
#916=CARTESIAN_POINT('Origin',(18.0000000000001,10.,-14.9999932236712));
#917=CARTESIAN_POINT('',(18.0000002682209,14.,-9.00000013411045));
#918=CARTESIAN_POINT('Origin',(18.0000000000001,14.,-14.9999932236712));
#919=CARTESIAN_POINT('',(18.0000002682209,10.,-9.00000013411045));
#920=CARTESIAN_POINT('Origin',(18.0000000000001,10.,-14.9999932236712));
#921=CARTESIAN_POINT('',(18.0000002682209,10.,-9.00000013411045));
#922=CARTESIAN_POINT('Origin',(0.,10.,-8.99999322367119));
#923=CARTESIAN_POINT('',(0.,14.,-8.99999322367119));
#924=CARTESIAN_POINT('',(-2.87933661650936E-7,14.,-8.99999322367108));
#925=CARTESIAN_POINT('',(0.,10.,-8.99999322367119));
#926=CARTESIAN_POINT('',(-2.87933661650936E-7,10.,-8.99999322367108));
#927=CARTESIAN_POINT('',(0.,10.,-8.99999322367119));
#928=CARTESIAN_POINT('Origin',(-18.0000002682209,10.,-9.00000013411045));
#929=CARTESIAN_POINT('',(-18.0000002682209,14.,-9.00000013411045));
#930=CARTESIAN_POINT('',(-8.99999984617678,14.,-8.99999667889071));
#931=CARTESIAN_POINT('',(-18.0000002682209,10.,-9.00000013411045));
#932=CARTESIAN_POINT('',(-8.99999984617678,10.,-8.99999667889071));
#933=CARTESIAN_POINT('',(-18.0000002682209,10.,-9.00000013411045));
#934=CARTESIAN_POINT('Origin',(-18.0000000000001,10.,-14.9999932236712));
#935=CARTESIAN_POINT('',(-23.9999930895567,14.,-15.0000002235089));
#936=CARTESIAN_POINT('Origin',(-18.0000000000001,14.,-14.9999932236712));
#937=CARTESIAN_POINT('',(-23.9999930895567,10.,-15.0000002235089));
#938=CARTESIAN_POINT('Origin',(-18.0000000000001,10.,-14.9999932236712));
#939=CARTESIAN_POINT('',(-23.9999930895567,10.,-15.0000002235089));
#940=CARTESIAN_POINT('Origin',(-24.0000003576279,10.,-20.0000002980232));
#941=CARTESIAN_POINT('',(-24.0000003576279,14.,-20.0000002980232));
#942=CARTESIAN_POINT('',(-23.9999912725135,14.,-13.7499827056541));
#943=CARTESIAN_POINT('',(-24.0000003576279,10.,-20.0000002980232));
#944=CARTESIAN_POINT('',(-23.9999912725135,10.,-13.7499827056541));
#945=CARTESIAN_POINT('',(-24.0000003576279,10.,-20.0000002980232));
#946=CARTESIAN_POINT('Origin',(-18.0000000000001,10.,-19.9999932236712));
#947=CARTESIAN_POINT('Origin',(-18.0000000000001,14.,-19.9999932236712));
#948=CARTESIAN_POINT('Origin',(-18.0000000000001,10.,-19.9999932236712));
#949=CARTESIAN_POINT('Origin',(27.,10.,15.));
#950=CARTESIAN_POINT('',(28.,14.,15.));
#951=CARTESIAN_POINT('Origin',(27.,14.,15.));
#952=CARTESIAN_POINT('',(28.,10.,15.));
#953=CARTESIAN_POINT('',(28.,10.,15.));
#954=CARTESIAN_POINT('Origin',(27.,10.,15.));
#955=CARTESIAN_POINT('Origin',(2.63677968348476E-15,10.,-29.4999932236713));
#956=CARTESIAN_POINT('',(1.25,14.,-29.4999932236713));
#957=CARTESIAN_POINT('Origin',(2.63677968348476E-15,14.,-29.4999932236713));
#958=CARTESIAN_POINT('',(1.25,10.,-29.4999932236713));
#959=CARTESIAN_POINT('',(1.25,10.,-29.4999932236713));
#960=CARTESIAN_POINT('Origin',(2.63677968348476E-15,10.,-29.4999932236713));
#961=CARTESIAN_POINT('Origin',(27.,10.,-30.));
#962=CARTESIAN_POINT('',(28.,14.,-30.));
#963=CARTESIAN_POINT('Origin',(27.,14.,-30.));
#964=CARTESIAN_POINT('',(28.,10.,-30.));
#965=CARTESIAN_POINT('',(28.,10.,-30.));
#966=CARTESIAN_POINT('Origin',(27.,10.,-30.));
#967=CARTESIAN_POINT('Origin',(-27.,10.,15.));
#968=CARTESIAN_POINT('',(-26.,14.,15.));
#969=CARTESIAN_POINT('Origin',(-27.,14.,15.));
#970=CARTESIAN_POINT('',(-26.,10.,15.));
#971=CARTESIAN_POINT('',(-26.,10.,15.));
#972=CARTESIAN_POINT('Origin',(-27.,10.,15.));
#973=CARTESIAN_POINT('Origin',(2.63677968348475E-15,10.,-5.49999322367119));
#974=CARTESIAN_POINT('',(1.25,14.,-5.49999322367119));
#975=CARTESIAN_POINT('Origin',(2.63677968348475E-15,14.,-5.49999322367119));
#976=CARTESIAN_POINT('',(1.25,10.,-5.49999322367119));
#977=CARTESIAN_POINT('',(1.25,10.,-5.49999322367119));
#978=CARTESIAN_POINT('Origin',(2.63677968348475E-15,10.,-5.49999322367119));
#979=CARTESIAN_POINT('Origin',(-27.,10.,-30.));
#980=CARTESIAN_POINT('',(-26.,14.,-30.));
#981=CARTESIAN_POINT('Origin',(-27.,14.,-30.));
#982=CARTESIAN_POINT('',(-26.,10.,-30.));
#983=CARTESIAN_POINT('',(-26.,10.,-30.));
#984=CARTESIAN_POINT('Origin',(-27.,10.,-30.));
#985=CARTESIAN_POINT('Origin',(24.,10.,3.99999305978955));
#986=CARTESIAN_POINT('',(24.,10.,15.));
#987=CARTESIAN_POINT('',(24.,10.,3.99999305978955));
#988=CARTESIAN_POINT('',(24.,10.,15.));
#989=CARTESIAN_POINT('',(24.,14.,15.));
#990=CARTESIAN_POINT('',(24.,10.,15.));
#991=CARTESIAN_POINT('',(24.,14.,3.99999305978955));
#992=CARTESIAN_POINT('',(24.,14.,15.));
#993=CARTESIAN_POINT('',(24.,10.,3.99999305978955));
#994=CARTESIAN_POINT('Origin',(18.,10.,3.99999305978955));
#995=CARTESIAN_POINT('',(17.9999954278203,10.,-2.00000694020595));
#996=CARTESIAN_POINT('Origin',(18.,10.,3.99999305978955));
#997=CARTESIAN_POINT('',(17.9999954278202,14.,-2.00000694020595));
#998=CARTESIAN_POINT('Origin',(18.,14.,3.99999305978955));
#999=CARTESIAN_POINT('',(17.9999954278203,10.,-2.00000694020595));
#1000=CARTESIAN_POINT('Origin',(0.,10.,-1.99999322367119));
#1001=CARTESIAN_POINT('',(0.,10.,-1.99999322367119));
#1002=CARTESIAN_POINT('',(17.9999954278203,10.,-2.00000694020595));
#1003=CARTESIAN_POINT('',(0.,14.,-1.99999322367119));
#1004=CARTESIAN_POINT('',(17.9999954278203,14.,-2.00000694020595));
#1005=CARTESIAN_POINT('',(0.,10.,-1.99999322367119));
#1006=CARTESIAN_POINT('Origin',(-17.9999954278203,10.,-2.00000694020595));
#1007=CARTESIAN_POINT('',(-17.9999954278203,10.,-2.00000694020595));
#1008=CARTESIAN_POINT('',(-17.9999954278203,10.,-2.00000694020595));
#1009=CARTESIAN_POINT('',(-17.9999954278203,14.,-2.00000694020595));
#1010=CARTESIAN_POINT('',(-17.9999954278203,14.,-2.00000694020595));
#1011=CARTESIAN_POINT('',(-17.9999954278203,10.,-2.00000694020595));
#1012=CARTESIAN_POINT('Origin',(-18.,10.,3.99999305978955));
#1013=CARTESIAN_POINT('',(-24.,10.,3.99999305978955));
#1014=CARTESIAN_POINT('Origin',(-18.,10.,3.99999305978955));
#1015=CARTESIAN_POINT('',(-24.,14.,3.99999305978955));
#1016=CARTESIAN_POINT('Origin',(-18.,14.,3.99999305978955));
#1017=CARTESIAN_POINT('',(-24.,10.,3.99999305978955));
#1018=CARTESIAN_POINT('Origin',(-24.,10.,15.));
#1019=CARTESIAN_POINT('',(-24.,10.,15.));
#1020=CARTESIAN_POINT('',(-24.,10.,15.));
#1021=CARTESIAN_POINT('',(-24.,14.,15.));
#1022=CARTESIAN_POINT('',(-24.,14.,15.));
#1023=CARTESIAN_POINT('',(-24.,10.,15.));
#1024=CARTESIAN_POINT('Origin',(-27.,10.,15.));
#1025=CARTESIAN_POINT('',(-30.,10.,15.));
#1026=CARTESIAN_POINT('Origin',(-27.,10.,15.));
#1027=CARTESIAN_POINT('',(-30.,14.,15.));
#1028=CARTESIAN_POINT('Origin',(-27.,14.,15.));
#1029=CARTESIAN_POINT('',(-30.,10.,15.));
#1030=CARTESIAN_POINT('Origin',(-30.,10.,-30.));
#1031=CARTESIAN_POINT('',(-30.,10.,-30.));
#1032=CARTESIAN_POINT('',(-30.,10.,-30.));
#1033=CARTESIAN_POINT('',(-30.,14.,-30.));
#1034=CARTESIAN_POINT('',(-30.,14.,-30.));
#1035=CARTESIAN_POINT('',(-30.,10.,-30.));
#1036=CARTESIAN_POINT('Origin',(-27.,10.,-30.));
#1037=CARTESIAN_POINT('',(-26.9999968951402,10.,-33.));
#1038=CARTESIAN_POINT('Origin',(-27.,10.,-30.));
#1039=CARTESIAN_POINT('',(-26.9999968951402,14.,-33.));
#1040=CARTESIAN_POINT('Origin',(-27.,14.,-30.));
#1041=CARTESIAN_POINT('',(-26.9999968951402,10.,-33.));
#1042=CARTESIAN_POINT('Origin',(26.9999968951402,10.,-33.));
#1043=CARTESIAN_POINT('',(26.9999968951402,10.,-32.9999999999984));
#1044=CARTESIAN_POINT('',(4.98362412792808E-15,10.,-33.));
#1045=CARTESIAN_POINT('',(26.9999968951402,14.,-32.9999999999984));
#1046=CARTESIAN_POINT('',(4.98362412792808E-15,14.,-33.));
#1047=CARTESIAN_POINT('',(26.9999968951402,10.,-32.9999999999984));
#1048=CARTESIAN_POINT('Origin',(27.,10.,-30.));
#1049=CARTESIAN_POINT('',(30.,10.,-30.));
#1050=CARTESIAN_POINT('Origin',(27.,10.,-30.));
#1051=CARTESIAN_POINT('',(30.,14.,-30.));
#1052=CARTESIAN_POINT('Origin',(27.,14.,-30.));
#1053=CARTESIAN_POINT('',(30.,10.,-30.));
#1054=CARTESIAN_POINT('Origin',(30.,10.,15.));
#1055=CARTESIAN_POINT('',(30.,10.,15.));
#1056=CARTESIAN_POINT('',(30.,10.,-30.));
#1057=CARTESIAN_POINT('',(30.,14.,15.));
#1058=CARTESIAN_POINT('',(30.,14.,-30.));
#1059=CARTESIAN_POINT('',(30.,10.,15.));
#1060=CARTESIAN_POINT('Origin',(27.,10.,15.));
#1061=CARTESIAN_POINT('Origin',(27.,10.,15.));
#1062=CARTESIAN_POINT('Origin',(27.,14.,15.));
#1063=CARTESIAN_POINT('Origin',(4.44089209850063E-15,14.,-7.5));
#1064=CARTESIAN_POINT('Origin',(4.44089209850063E-15,10.,-7.5));
#1065=UNCERTAINTY_MEASURE_WITH_UNIT(LENGTH_MEASURE(0.01),#1069,
'DISTANCE_ACCURACY_VALUE',
'Maximum model space distance between geometric entities at asserted c
onnectivities');
#1066=UNCERTAINTY_MEASURE_WITH_UNIT(LENGTH_MEASURE(0.01),#1069,
'DISTANCE_ACCURACY_VALUE',
'Maximum model space distance between geometric entities at asserted c
onnectivities');
#1067=(
GEOMETRIC_REPRESENTATION_CONTEXT(3)
GLOBAL_UNCERTAINTY_ASSIGNED_CONTEXT((#1065))
GLOBAL_UNIT_ASSIGNED_CONTEXT((#1069,#1071,#1072))
REPRESENTATION_CONTEXT('','3D')
);
#1068=(
GEOMETRIC_REPRESENTATION_CONTEXT(3)
GLOBAL_UNCERTAINTY_ASSIGNED_CONTEXT((#1066))
GLOBAL_UNIT_ASSIGNED_CONTEXT((#1069,#1071,#1072))
REPRESENTATION_CONTEXT('','3D')
);
#1069=(
LENGTH_UNIT()
NAMED_UNIT(*)
SI_UNIT(.MILLI.,.METRE.)
);
#1070=(
LENGTH_UNIT()
NAMED_UNIT(*)
SI_UNIT($,.METRE.)
);
#1071=(
NAMED_UNIT(*)
PLANE_ANGLE_UNIT()
SI_UNIT($,.RADIAN.)
);
#1072=(
NAMED_UNIT(*)
SI_UNIT($,.STERADIAN.)
SOLID_ANGLE_UNIT()
);
#1073=SHAPE_DEFINITION_REPRESENTATION(#1074,#1075);
#1074=PRODUCT_DEFINITION_SHAPE('',$,#1077);
#1075=SHAPE_REPRESENTATION('',(#641),#1067);
#1076=PRODUCT_DEFINITION_CONTEXT('part definition',#1081,'design');
#1077=PRODUCT_DEFINITION('2025-12-28-17-03-07-100','RearPlate',#1078,#1076);
#1078=PRODUCT_DEFINITION_FORMATION('',$,#1083);
#1079=PRODUCT_RELATED_PRODUCT_CATEGORY('RearPlate','RearPlate',(#1083));
#1080=APPLICATION_PROTOCOL_DEFINITION('international standard',
'automotive_design',2009,#1081);
#1081=APPLICATION_CONTEXT(
'Core Data for Automotive Mechanical Design Process');
#1082=PRODUCT_CONTEXT('part definition',#1081,'mechanical');
#1083=PRODUCT('2025-12-28-17-03-07-100','RearPlate',$,(#1082));
#1084=PRESENTATION_STYLE_ASSIGNMENT((#1086));
#1085=PRESENTATION_STYLE_ASSIGNMENT((#1087));
#1086=SURFACE_STYLE_USAGE(.BOTH.,#1088);
#1087=SURFACE_STYLE_USAGE(.BOTH.,#1089);
#1088=SURFACE_SIDE_STYLE('',(#1090));
#1089=SURFACE_SIDE_STYLE('',(#1091));
#1090=SURFACE_STYLE_FILL_AREA(#1092);
#1091=SURFACE_STYLE_FILL_AREA(#1093);
#1092=FILL_AREA_STYLE('\X2\92FC\X0\ - \X2\30B530C630F3\X0\',(#1094));
#1093=FILL_AREA_STYLE(
'\X2\30CA30A430ED30F3\X0\ 12 (Formlabs Fuse 1 3D \X2\30D730EA30F330BF4F7F7528\X0\)',
(#1095));
#1094=FILL_AREA_STYLE_COLOUR('\X2\92FC\X0\ - \X2\30B530C630F3\X0\',#1096);
#1095=FILL_AREA_STYLE_COLOUR(
'\X2\30CA30A430ED30F3\X0\ 12 (Formlabs Fuse 1 3D \X2\30D730EA30F330BF4F7F7528\X0\)',
#1097);
#1096=COLOUR_RGB('\X2\92FC\X0\ - \X2\30B530C630F3\X0\',0.627450980392157,
0.627450980392157,0.627450980392157);
#1097=COLOUR_RGB(
'\X2\30CA30A430ED30F3\X0\ 12 (Formlabs Fuse 1 3D \X2\30D730EA30F330BF4F7F7528\X0\)',
0.52156862745098,0.52156862745098,0.603921568627451);
ENDSEC;
END-ISO-10303-21;
