ISO-10303-21;
HEADER;
/* Generated by software containing ST-Developer
 * from STEP Tools, Inc. (www.steptools.com) 
 */

FILE_DESCRIPTION(
/* description */ (''),
/* implementation_level */ '2;1');

FILE_NAME(
/* name */ 'WheelAdaptor.step',
/* time_stamp */ '2026-01-06T12:00:27+09:00',
/* author */ (''),
/* organization */ (''),
/* preprocessor_version */ 'ST-DEVELOPER v20.1',
/* originating_system */ 'Autodesk Translation Framework v14.21.0.0',
/* authorisation */ '');

FILE_SCHEMA (('AUTOMOTIVE_DESIGN { 1 0 10303 214 3 1 1 }'));
ENDSEC;

DATA;
#10=MECHANICAL_DESIGN_GEOMETRIC_PRESENTATION_REPRESENTATION('',(#13),#694);
#11=SHAPE_REPRESENTATION_RELATIONSHIP('SRR','None',#701,#12);
#12=ADVANCED_BREP_SHAPE_REPRESENTATION('',(#14),#693);
#13=STYLED_ITEM('',(#710),#14);
#14=MANIFOLD_SOLID_BREP('\X2\30DC30C730A3\X0\',#386);
#15=FACE_BOUND('',#58,.T.);
#16=FACE_BOUND('',#59,.T.);
#17=FACE_BOUND('',#60,.T.);
#18=FACE_BOUND('',#61,.T.);
#19=FACE_BOUND('',#63,.T.);
#20=FACE_BOUND('',#64,.T.);
#21=FACE_BOUND('',#65,.T.);
#22=FACE_BOUND('',#66,.T.);
#23=FACE_BOUND('',#84,.T.);
#24=FACE_BOUND('',#85,.T.);
#25=FACE_BOUND('',#86,.T.);
#26=FACE_BOUND('',#87,.T.);
#27=FACE_BOUND('',#89,.T.);
#28=FACE_BOUND('',#90,.T.);
#29=FACE_BOUND('',#91,.T.);
#30=FACE_BOUND('',#92,.T.);
#31=PLANE('',#403);
#32=PLANE('',#408);
#33=PLANE('',#453);
#34=PLANE('',#454);
#35=FACE_OUTER_BOUND('',#56,.T.);
#36=FACE_OUTER_BOUND('',#57,.T.);
#37=FACE_OUTER_BOUND('',#62,.T.);
#38=FACE_OUTER_BOUND('',#67,.T.);
#39=FACE_OUTER_BOUND('',#68,.T.);
#40=FACE_OUTER_BOUND('',#69,.T.);
#41=FACE_OUTER_BOUND('',#70,.T.);
#42=FACE_OUTER_BOUND('',#71,.T.);
#43=FACE_OUTER_BOUND('',#72,.T.);
#44=FACE_OUTER_BOUND('',#73,.T.);
#45=FACE_OUTER_BOUND('',#74,.T.);
#46=FACE_OUTER_BOUND('',#75,.T.);
#47=FACE_OUTER_BOUND('',#76,.T.);
#48=FACE_OUTER_BOUND('',#77,.T.);
#49=FACE_OUTER_BOUND('',#78,.T.);
#50=FACE_OUTER_BOUND('',#79,.T.);
#51=FACE_OUTER_BOUND('',#80,.T.);
#52=FACE_OUTER_BOUND('',#81,.T.);
#53=FACE_OUTER_BOUND('',#82,.T.);
#54=FACE_OUTER_BOUND('',#83,.T.);
#55=FACE_OUTER_BOUND('',#88,.T.);
#56=EDGE_LOOP('',(#246,#247,#248,#249));
#57=EDGE_LOOP('',(#250));
#58=EDGE_LOOP('',(#251));
#59=EDGE_LOOP('',(#252));
#60=EDGE_LOOP('',(#253));
#61=EDGE_LOOP('',(#254));
#62=EDGE_LOOP('',(#255,#256,#257,#258,#259,#260,#261,#262));
#63=EDGE_LOOP('',(#263));
#64=EDGE_LOOP('',(#264));
#65=EDGE_LOOP('',(#265));
#66=EDGE_LOOP('',(#266));
#67=EDGE_LOOP('',(#267,#268,#269,#270));
#68=EDGE_LOOP('',(#271,#272,#273,#274));
#69=EDGE_LOOP('',(#275,#276,#277,#278));
#70=EDGE_LOOP('',(#279,#280,#281,#282));
#71=EDGE_LOOP('',(#283,#284,#285,#286));
#72=EDGE_LOOP('',(#287,#288,#289,#290));
#73=EDGE_LOOP('',(#291,#292,#293,#294));
#74=EDGE_LOOP('',(#295,#296,#297,#298));
#75=EDGE_LOOP('',(#299,#300,#301,#302));
#76=EDGE_LOOP('',(#303,#304,#305,#306));
#77=EDGE_LOOP('',(#307,#308,#309,#310));
#78=EDGE_LOOP('',(#311,#312,#313,#314));
#79=EDGE_LOOP('',(#315,#316,#317,#318));
#80=EDGE_LOOP('',(#319,#320,#321,#322));
#81=EDGE_LOOP('',(#323,#324,#325,#326));
#82=EDGE_LOOP('',(#327,#328,#329,#330));
#83=EDGE_LOOP('',(#331));
#84=EDGE_LOOP('',(#332));
#85=EDGE_LOOP('',(#333));
#86=EDGE_LOOP('',(#334));
#87=EDGE_LOOP('',(#335));
#88=EDGE_LOOP('',(#336));
#89=EDGE_LOOP('',(#337,#338,#339,#340,#341,#342,#343,#344));
#90=EDGE_LOOP('',(#345));
#91=EDGE_LOOP('',(#346));
#92=EDGE_LOOP('',(#347));
#93=LINE('',#589,#110);
#94=LINE('',#629,#111);
#95=LINE('',#630,#112);
#96=LINE('',#634,#113);
#97=LINE('',#638,#114);
#98=LINE('',#642,#115);
#99=LINE('',#646,#116);
#100=LINE('',#650,#117);
#101=LINE('',#654,#118);
#102=LINE('',#659,#119);
#103=LINE('',#664,#120);
#104=LINE('',#667,#121);
#105=LINE('',#671,#122);
#106=LINE('',#676,#123);
#107=LINE('',#680,#124);
#108=LINE('',#683,#125);
#109=LINE('',#688,#126);
#110=VECTOR('',#461,8.);
#111=VECTOR('',#504,10.);
#112=VECTOR('',#505,10.);
#113=VECTOR('',#510,10.);
#114=VECTOR('',#515,10.);
#115=VECTOR('',#520,10.);
#116=VECTOR('',#525,10.);
#117=VECTOR('',#530,10.);
#118=VECTOR('',#535,10.);
#119=VECTOR('',#542,1.1);
#120=VECTOR('',#549,1.25);
#121=VECTOR('',#552,1.1);
#122=VECTOR('',#557,1.1);
#123=VECTOR('',#564,1.25);
#124=VECTOR('',#569,1.25);
#125=VECTOR('',#572,1.1);
#126=VECTOR('',#579,15.);
#127=CIRCLE('',#401,8.);
#128=CIRCLE('',#402,8.);
#129=CIRCLE('',#404,15.);
#130=CIRCLE('',#405,1.25);
#131=CIRCLE('',#406,1.25);
#132=CIRCLE('',#407,1.25);
#133=CIRCLE('',#409,5.6);
#134=CIRCLE('',#410,1.8);
#135=CIRCLE('',#411,5.6);
#136=CIRCLE('',#412,1.8);
#137=CIRCLE('',#413,5.6);
#138=CIRCLE('',#414,1.8);
#139=CIRCLE('',#415,5.6);
#140=CIRCLE('',#416,1.8);
#141=CIRCLE('',#417,1.1);
#142=CIRCLE('',#418,1.1);
#143=CIRCLE('',#419,1.1);
#144=CIRCLE('',#420,1.1);
#145=CIRCLE('',#422,1.8);
#146=CIRCLE('',#424,5.6);
#147=CIRCLE('',#426,1.8);
#148=CIRCLE('',#428,5.6);
#149=CIRCLE('',#430,1.8);
#150=CIRCLE('',#432,5.6);
#151=CIRCLE('',#434,1.8);
#152=CIRCLE('',#436,5.6);
#153=CIRCLE('',#438,1.1);
#154=CIRCLE('',#440,1.25);
#155=CIRCLE('',#442,1.1);
#156=CIRCLE('',#444,1.1);
#157=CIRCLE('',#446,1.25);
#158=CIRCLE('',#448,1.25);
#159=CIRCLE('',#450,1.1);
#160=CIRCLE('',#452,15.);
#161=VERTEX_POINT('',#586);
#162=VERTEX_POINT('',#588);
#163=VERTEX_POINT('',#592);
#164=VERTEX_POINT('',#594);
#165=VERTEX_POINT('',#596);
#166=VERTEX_POINT('',#598);
#167=VERTEX_POINT('',#601);
#168=VERTEX_POINT('',#602);
#169=VERTEX_POINT('',#604);
#170=VERTEX_POINT('',#606);
#171=VERTEX_POINT('',#608);
#172=VERTEX_POINT('',#610);
#173=VERTEX_POINT('',#612);
#174=VERTEX_POINT('',#614);
#175=VERTEX_POINT('',#617);
#176=VERTEX_POINT('',#619);
#177=VERTEX_POINT('',#621);
#178=VERTEX_POINT('',#623);
#179=VERTEX_POINT('',#626);
#180=VERTEX_POINT('',#627);
#181=VERTEX_POINT('',#632);
#182=VERTEX_POINT('',#636);
#183=VERTEX_POINT('',#640);
#184=VERTEX_POINT('',#644);
#185=VERTEX_POINT('',#648);
#186=VERTEX_POINT('',#652);
#187=VERTEX_POINT('',#658);
#188=VERTEX_POINT('',#662);
#189=VERTEX_POINT('',#666);
#190=VERTEX_POINT('',#670);
#191=VERTEX_POINT('',#674);
#192=VERTEX_POINT('',#678);
#193=VERTEX_POINT('',#682);
#194=VERTEX_POINT('',#686);
#195=EDGE_CURVE('',#161,#161,#127,.T.);
#196=EDGE_CURVE('',#161,#162,#93,.T.);
#197=EDGE_CURVE('',#162,#162,#128,.T.);
#198=EDGE_CURVE('',#163,#163,#129,.T.);
#199=EDGE_CURVE('',#164,#164,#130,.T.);
#200=EDGE_CURVE('',#165,#165,#131,.T.);
#201=EDGE_CURVE('',#166,#166,#132,.T.);
#202=EDGE_CURVE('',#167,#168,#133,.T.);
#203=EDGE_CURVE('',#169,#167,#134,.T.);
#204=EDGE_CURVE('',#170,#169,#135,.T.);
#205=EDGE_CURVE('',#171,#170,#136,.T.);
#206=EDGE_CURVE('',#172,#171,#137,.T.);
#207=EDGE_CURVE('',#173,#172,#138,.T.);
#208=EDGE_CURVE('',#174,#173,#139,.T.);
#209=EDGE_CURVE('',#168,#174,#140,.T.);
#210=EDGE_CURVE('',#175,#175,#141,.T.);
#211=EDGE_CURVE('',#176,#176,#142,.T.);
#212=EDGE_CURVE('',#177,#177,#143,.T.);
#213=EDGE_CURVE('',#178,#178,#144,.T.);
#214=EDGE_CURVE('',#179,#180,#145,.T.);
#215=EDGE_CURVE('',#179,#169,#94,.T.);
#216=EDGE_CURVE('',#180,#167,#95,.T.);
#217=EDGE_CURVE('',#181,#179,#146,.T.);
#218=EDGE_CURVE('',#181,#170,#96,.T.);
#219=EDGE_CURVE('',#182,#181,#147,.T.);
#220=EDGE_CURVE('',#182,#171,#97,.T.);
#221=EDGE_CURVE('',#183,#182,#148,.T.);
#222=EDGE_CURVE('',#183,#172,#98,.T.);
#223=EDGE_CURVE('',#184,#183,#149,.T.);
#224=EDGE_CURVE('',#184,#173,#99,.T.);
#225=EDGE_CURVE('',#185,#184,#150,.T.);
#226=EDGE_CURVE('',#185,#174,#100,.T.);
#227=EDGE_CURVE('',#186,#185,#151,.T.);
#228=EDGE_CURVE('',#186,#168,#101,.T.);
#229=EDGE_CURVE('',#180,#186,#152,.T.);
#230=EDGE_CURVE('',#177,#187,#102,.T.);
#231=EDGE_CURVE('',#187,#187,#153,.T.);
#232=EDGE_CURVE('',#188,#188,#154,.T.);
#233=EDGE_CURVE('',#188,#166,#103,.T.);
#234=EDGE_CURVE('',#176,#189,#104,.T.);
#235=EDGE_CURVE('',#189,#189,#155,.T.);
#236=EDGE_CURVE('',#178,#190,#105,.T.);
#237=EDGE_CURVE('',#190,#190,#156,.T.);
#238=EDGE_CURVE('',#191,#191,#157,.T.);
#239=EDGE_CURVE('',#191,#165,#106,.T.);
#240=EDGE_CURVE('',#192,#192,#158,.T.);
#241=EDGE_CURVE('',#192,#164,#107,.T.);
#242=EDGE_CURVE('',#175,#193,#108,.T.);
#243=EDGE_CURVE('',#193,#193,#159,.T.);
#244=EDGE_CURVE('',#194,#194,#160,.T.);
#245=EDGE_CURVE('',#194,#163,#109,.T.);
#246=ORIENTED_EDGE('',*,*,#195,.F.);
#247=ORIENTED_EDGE('',*,*,#196,.T.);
#248=ORIENTED_EDGE('',*,*,#197,.T.);
#249=ORIENTED_EDGE('',*,*,#196,.F.);
#250=ORIENTED_EDGE('',*,*,#198,.F.);
#251=ORIENTED_EDGE('',*,*,#199,.F.);
#252=ORIENTED_EDGE('',*,*,#197,.F.);
#253=ORIENTED_EDGE('',*,*,#200,.F.);
#254=ORIENTED_EDGE('',*,*,#201,.F.);
#255=ORIENTED_EDGE('',*,*,#202,.F.);
#256=ORIENTED_EDGE('',*,*,#203,.F.);
#257=ORIENTED_EDGE('',*,*,#204,.F.);
#258=ORIENTED_EDGE('',*,*,#205,.F.);
#259=ORIENTED_EDGE('',*,*,#206,.F.);
#260=ORIENTED_EDGE('',*,*,#207,.F.);
#261=ORIENTED_EDGE('',*,*,#208,.F.);
#262=ORIENTED_EDGE('',*,*,#209,.F.);
#263=ORIENTED_EDGE('',*,*,#210,.F.);
#264=ORIENTED_EDGE('',*,*,#211,.F.);
#265=ORIENTED_EDGE('',*,*,#212,.F.);
#266=ORIENTED_EDGE('',*,*,#213,.F.);
#267=ORIENTED_EDGE('',*,*,#214,.F.);
#268=ORIENTED_EDGE('',*,*,#215,.T.);
#269=ORIENTED_EDGE('',*,*,#203,.T.);
#270=ORIENTED_EDGE('',*,*,#216,.F.);
#271=ORIENTED_EDGE('',*,*,#217,.F.);
#272=ORIENTED_EDGE('',*,*,#218,.T.);
#273=ORIENTED_EDGE('',*,*,#204,.T.);
#274=ORIENTED_EDGE('',*,*,#215,.F.);
#275=ORIENTED_EDGE('',*,*,#219,.F.);
#276=ORIENTED_EDGE('',*,*,#220,.T.);
#277=ORIENTED_EDGE('',*,*,#205,.T.);
#278=ORIENTED_EDGE('',*,*,#218,.F.);
#279=ORIENTED_EDGE('',*,*,#221,.F.);
#280=ORIENTED_EDGE('',*,*,#222,.T.);
#281=ORIENTED_EDGE('',*,*,#206,.T.);
#282=ORIENTED_EDGE('',*,*,#220,.F.);
#283=ORIENTED_EDGE('',*,*,#223,.F.);
#284=ORIENTED_EDGE('',*,*,#224,.T.);
#285=ORIENTED_EDGE('',*,*,#207,.T.);
#286=ORIENTED_EDGE('',*,*,#222,.F.);
#287=ORIENTED_EDGE('',*,*,#225,.F.);
#288=ORIENTED_EDGE('',*,*,#226,.T.);
#289=ORIENTED_EDGE('',*,*,#208,.T.);
#290=ORIENTED_EDGE('',*,*,#224,.F.);
#291=ORIENTED_EDGE('',*,*,#227,.F.);
#292=ORIENTED_EDGE('',*,*,#228,.T.);
#293=ORIENTED_EDGE('',*,*,#209,.T.);
#294=ORIENTED_EDGE('',*,*,#226,.F.);
#295=ORIENTED_EDGE('',*,*,#229,.F.);
#296=ORIENTED_EDGE('',*,*,#216,.T.);
#297=ORIENTED_EDGE('',*,*,#202,.T.);
#298=ORIENTED_EDGE('',*,*,#228,.F.);
#299=ORIENTED_EDGE('',*,*,#212,.T.);
#300=ORIENTED_EDGE('',*,*,#230,.T.);
#301=ORIENTED_EDGE('',*,*,#231,.F.);
#302=ORIENTED_EDGE('',*,*,#230,.F.);
#303=ORIENTED_EDGE('',*,*,#232,.F.);
#304=ORIENTED_EDGE('',*,*,#233,.T.);
#305=ORIENTED_EDGE('',*,*,#201,.T.);
#306=ORIENTED_EDGE('',*,*,#233,.F.);
#307=ORIENTED_EDGE('',*,*,#211,.T.);
#308=ORIENTED_EDGE('',*,*,#234,.T.);
#309=ORIENTED_EDGE('',*,*,#235,.F.);
#310=ORIENTED_EDGE('',*,*,#234,.F.);
#311=ORIENTED_EDGE('',*,*,#213,.T.);
#312=ORIENTED_EDGE('',*,*,#236,.T.);
#313=ORIENTED_EDGE('',*,*,#237,.F.);
#314=ORIENTED_EDGE('',*,*,#236,.F.);
#315=ORIENTED_EDGE('',*,*,#238,.F.);
#316=ORIENTED_EDGE('',*,*,#239,.T.);
#317=ORIENTED_EDGE('',*,*,#200,.T.);
#318=ORIENTED_EDGE('',*,*,#239,.F.);
#319=ORIENTED_EDGE('',*,*,#240,.F.);
#320=ORIENTED_EDGE('',*,*,#241,.T.);
#321=ORIENTED_EDGE('',*,*,#199,.T.);
#322=ORIENTED_EDGE('',*,*,#241,.F.);
#323=ORIENTED_EDGE('',*,*,#210,.T.);
#324=ORIENTED_EDGE('',*,*,#242,.T.);
#325=ORIENTED_EDGE('',*,*,#243,.F.);
#326=ORIENTED_EDGE('',*,*,#242,.F.);
#327=ORIENTED_EDGE('',*,*,#244,.F.);
#328=ORIENTED_EDGE('',*,*,#245,.T.);
#329=ORIENTED_EDGE('',*,*,#198,.T.);
#330=ORIENTED_EDGE('',*,*,#245,.F.);
#331=ORIENTED_EDGE('',*,*,#195,.T.);
#332=ORIENTED_EDGE('',*,*,#231,.T.);
#333=ORIENTED_EDGE('',*,*,#235,.T.);
#334=ORIENTED_EDGE('',*,*,#237,.T.);
#335=ORIENTED_EDGE('',*,*,#243,.T.);
#336=ORIENTED_EDGE('',*,*,#244,.T.);
#337=ORIENTED_EDGE('',*,*,#214,.T.);
#338=ORIENTED_EDGE('',*,*,#229,.T.);
#339=ORIENTED_EDGE('',*,*,#227,.T.);
#340=ORIENTED_EDGE('',*,*,#225,.T.);
#341=ORIENTED_EDGE('',*,*,#223,.T.);
#342=ORIENTED_EDGE('',*,*,#221,.T.);
#343=ORIENTED_EDGE('',*,*,#219,.T.);
#344=ORIENTED_EDGE('',*,*,#217,.T.);
#345=ORIENTED_EDGE('',*,*,#232,.T.);
#346=ORIENTED_EDGE('',*,*,#238,.T.);
#347=ORIENTED_EDGE('',*,*,#240,.T.);
#348=CYLINDRICAL_SURFACE('',#400,8.);
#349=CYLINDRICAL_SURFACE('',#421,1.8);
#350=CYLINDRICAL_SURFACE('',#423,5.6);
#351=CYLINDRICAL_SURFACE('',#425,1.8);
#352=CYLINDRICAL_SURFACE('',#427,5.6);
#353=CYLINDRICAL_SURFACE('',#429,1.8);
#354=CYLINDRICAL_SURFACE('',#431,5.6);
#355=CYLINDRICAL_SURFACE('',#433,1.8);
#356=CYLINDRICAL_SURFACE('',#435,5.6);
#357=CYLINDRICAL_SURFACE('',#437,1.1);
#358=CYLINDRICAL_SURFACE('',#439,1.25);
#359=CYLINDRICAL_SURFACE('',#441,1.1);
#360=CYLINDRICAL_SURFACE('',#443,1.1);
#361=CYLINDRICAL_SURFACE('',#445,1.25);
#362=CYLINDRICAL_SURFACE('',#447,1.25);
#363=CYLINDRICAL_SURFACE('',#449,1.1);
#364=CYLINDRICAL_SURFACE('',#451,15.);
#365=ADVANCED_FACE('',(#35),#348,.T.);
#366=ADVANCED_FACE('',(#36,#15,#16,#17,#18),#31,.T.);
#367=ADVANCED_FACE('',(#37,#19,#20,#21,#22),#32,.T.);
#368=ADVANCED_FACE('',(#38),#349,.F.);
#369=ADVANCED_FACE('',(#39),#350,.F.);
#370=ADVANCED_FACE('',(#40),#351,.F.);
#371=ADVANCED_FACE('',(#41),#352,.F.);
#372=ADVANCED_FACE('',(#42),#353,.F.);
#373=ADVANCED_FACE('',(#43),#354,.F.);
#374=ADVANCED_FACE('',(#44),#355,.F.);
#375=ADVANCED_FACE('',(#45),#356,.F.);
#376=ADVANCED_FACE('',(#46),#357,.F.);
#377=ADVANCED_FACE('',(#47),#358,.F.);
#378=ADVANCED_FACE('',(#48),#359,.F.);
#379=ADVANCED_FACE('',(#49),#360,.F.);
#380=ADVANCED_FACE('',(#50),#361,.F.);
#381=ADVANCED_FACE('',(#51),#362,.F.);
#382=ADVANCED_FACE('',(#52),#363,.F.);
#383=ADVANCED_FACE('',(#53),#364,.T.);
#384=ADVANCED_FACE('',(#54,#23,#24,#25,#26),#33,.T.);
#385=ADVANCED_FACE('',(#55,#27,#28,#29,#30),#34,.T.);
#386=CLOSED_SHELL('',(#365,#366,#367,#368,#369,#370,#371,#372,#373,#374,
#375,#376,#377,#378,#379,#380,#381,#382,#383,#384,#385));
#387=DERIVED_UNIT_ELEMENT(#389,1.);
#388=DERIVED_UNIT_ELEMENT(#696,-3.);
#389=(
MASS_UNIT()
NAMED_UNIT(*)
SI_UNIT(.KILO.,.GRAM.)
);
#390=DERIVED_UNIT((#387,#388));
#391=MEASURE_REPRESENTATION_ITEM('density measure',
POSITIVE_RATIO_MEASURE(7850.),#390);
#392=PROPERTY_DEFINITION_REPRESENTATION(#397,#394);
#393=PROPERTY_DEFINITION_REPRESENTATION(#398,#395);
#394=REPRESENTATION('material name',(#396),#693);
#395=REPRESENTATION('density',(#391),#693);
#396=DESCRIPTIVE_REPRESENTATION_ITEM('\X2\92FC\X0\','\X2\92FC\X0\');
#397=PROPERTY_DEFINITION('material property','material name',#703);
#398=PROPERTY_DEFINITION('material property','density of part',#703);
#399=AXIS2_PLACEMENT_3D('',#584,#455,#456);
#400=AXIS2_PLACEMENT_3D('',#585,#457,#458);
#401=AXIS2_PLACEMENT_3D('',#587,#459,#460);
#402=AXIS2_PLACEMENT_3D('',#590,#462,#463);
#403=AXIS2_PLACEMENT_3D('',#591,#464,#465);
#404=AXIS2_PLACEMENT_3D('',#593,#466,#467);
#405=AXIS2_PLACEMENT_3D('',#595,#468,#469);
#406=AXIS2_PLACEMENT_3D('',#597,#470,#471);
#407=AXIS2_PLACEMENT_3D('',#599,#472,#473);
#408=AXIS2_PLACEMENT_3D('',#600,#474,#475);
#409=AXIS2_PLACEMENT_3D('',#603,#476,#477);
#410=AXIS2_PLACEMENT_3D('',#605,#478,#479);
#411=AXIS2_PLACEMENT_3D('',#607,#480,#481);
#412=AXIS2_PLACEMENT_3D('',#609,#482,#483);
#413=AXIS2_PLACEMENT_3D('',#611,#484,#485);
#414=AXIS2_PLACEMENT_3D('',#613,#486,#487);
#415=AXIS2_PLACEMENT_3D('',#615,#488,#489);
#416=AXIS2_PLACEMENT_3D('',#616,#490,#491);
#417=AXIS2_PLACEMENT_3D('',#618,#492,#493);
#418=AXIS2_PLACEMENT_3D('',#620,#494,#495);
#419=AXIS2_PLACEMENT_3D('',#622,#496,#497);
#420=AXIS2_PLACEMENT_3D('',#624,#498,#499);
#421=AXIS2_PLACEMENT_3D('',#625,#500,#501);
#422=AXIS2_PLACEMENT_3D('',#628,#502,#503);
#423=AXIS2_PLACEMENT_3D('',#631,#506,#507);
#424=AXIS2_PLACEMENT_3D('',#633,#508,#509);
#425=AXIS2_PLACEMENT_3D('',#635,#511,#512);
#426=AXIS2_PLACEMENT_3D('',#637,#513,#514);
#427=AXIS2_PLACEMENT_3D('',#639,#516,#517);
#428=AXIS2_PLACEMENT_3D('',#641,#518,#519);
#429=AXIS2_PLACEMENT_3D('',#643,#521,#522);
#430=AXIS2_PLACEMENT_3D('',#645,#523,#524);
#431=AXIS2_PLACEMENT_3D('',#647,#526,#527);
#432=AXIS2_PLACEMENT_3D('',#649,#528,#529);
#433=AXIS2_PLACEMENT_3D('',#651,#531,#532);
#434=AXIS2_PLACEMENT_3D('',#653,#533,#534);
#435=AXIS2_PLACEMENT_3D('',#655,#536,#537);
#436=AXIS2_PLACEMENT_3D('',#656,#538,#539);
#437=AXIS2_PLACEMENT_3D('',#657,#540,#541);
#438=AXIS2_PLACEMENT_3D('',#660,#543,#544);
#439=AXIS2_PLACEMENT_3D('',#661,#545,#546);
#440=AXIS2_PLACEMENT_3D('',#663,#547,#548);
#441=AXIS2_PLACEMENT_3D('',#665,#550,#551);
#442=AXIS2_PLACEMENT_3D('',#668,#553,#554);
#443=AXIS2_PLACEMENT_3D('',#669,#555,#556);
#444=AXIS2_PLACEMENT_3D('',#672,#558,#559);
#445=AXIS2_PLACEMENT_3D('',#673,#560,#561);
#446=AXIS2_PLACEMENT_3D('',#675,#562,#563);
#447=AXIS2_PLACEMENT_3D('',#677,#565,#566);
#448=AXIS2_PLACEMENT_3D('',#679,#567,#568);
#449=AXIS2_PLACEMENT_3D('',#681,#570,#571);
#450=AXIS2_PLACEMENT_3D('',#684,#573,#574);
#451=AXIS2_PLACEMENT_3D('',#685,#575,#576);
#452=AXIS2_PLACEMENT_3D('',#687,#577,#578);
#453=AXIS2_PLACEMENT_3D('',#689,#580,#581);
#454=AXIS2_PLACEMENT_3D('',#690,#582,#583);
#455=DIRECTION('axis',(0.,0.,1.));
#456=DIRECTION('refdir',(1.,0.,0.));
#457=DIRECTION('center_axis',(1.,0.,0.));
#458=DIRECTION('ref_axis',(0.,0.,1.));
#459=DIRECTION('center_axis',(-1.,0.,2.22044604925031E-16));
#460=DIRECTION('ref_axis',(0.,0.,1.));
#461=DIRECTION('',(1.,0.,0.));
#462=DIRECTION('center_axis',(-1.,0.,0.));
#463=DIRECTION('ref_axis',(0.,0.,1.));
#464=DIRECTION('center_axis',(-1.,0.,-2.46519032881566E-32));
#465=DIRECTION('ref_axis',(-2.46519032881566E-32,0.,1.));
#466=DIRECTION('center_axis',(1.,0.,2.46519032881566E-32));
#467=DIRECTION('ref_axis',(-2.22044604925031E-16,0.,-1.));
#468=DIRECTION('center_axis',(-1.,0.,-2.46519032881566E-32));
#469=DIRECTION('ref_axis',(0.,0.,-1.));
#470=DIRECTION('center_axis',(-1.,0.,-2.46519032881566E-32));
#471=DIRECTION('ref_axis',(0.,0.,-1.));
#472=DIRECTION('center_axis',(-1.,0.,-2.46519032881566E-32));
#473=DIRECTION('ref_axis',(0.,0.,-1.));
#474=DIRECTION('center_axis',(1.,0.,0.));
#475=DIRECTION('ref_axis',(0.,0.,-1.));
#476=DIRECTION('center_axis',(-1.,0.,0.));
#477=DIRECTION('ref_axis',(0.,0.,-1.));
#478=DIRECTION('center_axis',(-1.,0.,0.));
#479=DIRECTION('ref_axis',(0.,0.,-1.));
#480=DIRECTION('center_axis',(-1.,0.,0.));
#481=DIRECTION('ref_axis',(0.,0.,-1.));
#482=DIRECTION('center_axis',(-1.,0.,0.));
#483=DIRECTION('ref_axis',(0.,0.,-1.));
#484=DIRECTION('center_axis',(-1.,0.,0.));
#485=DIRECTION('ref_axis',(0.,0.,-1.));
#486=DIRECTION('center_axis',(-1.,0.,0.));
#487=DIRECTION('ref_axis',(0.,0.,-1.));
#488=DIRECTION('center_axis',(-1.,0.,0.));
#489=DIRECTION('ref_axis',(0.,0.,-1.));
#490=DIRECTION('center_axis',(-1.,0.,0.));
#491=DIRECTION('ref_axis',(0.,0.,-1.));
#492=DIRECTION('center_axis',(1.,0.,0.));
#493=DIRECTION('ref_axis',(0.,0.,-1.));
#494=DIRECTION('center_axis',(1.,0.,0.));
#495=DIRECTION('ref_axis',(0.,0.,-1.));
#496=DIRECTION('center_axis',(1.,0.,0.));
#497=DIRECTION('ref_axis',(0.,0.,-1.));
#498=DIRECTION('center_axis',(1.,0.,0.));
#499=DIRECTION('ref_axis',(0.,0.,-1.));
#500=DIRECTION('center_axis',(-1.,0.,0.));
#501=DIRECTION('ref_axis',(0.,-1.22464679914735E-16,1.));
#502=DIRECTION('center_axis',(-1.,0.,2.22044604925031E-16));
#503=DIRECTION('ref_axis',(0.,0.,-1.));
#504=DIRECTION('',(-1.,0.,0.));
#505=DIRECTION('',(-1.,0.,0.));
#506=DIRECTION('center_axis',(-1.,0.,0.));
#507=DIRECTION('ref_axis',(0.,0.,-1.));
#508=DIRECTION('center_axis',(-1.,0.,2.22044604925031E-16));
#509=DIRECTION('ref_axis',(0.,0.,-1.));
#510=DIRECTION('',(-1.,0.,0.));
#511=DIRECTION('center_axis',(-1.,0.,0.));
#512=DIRECTION('ref_axis',(0.,-1.,1.60812264967664E-16));
#513=DIRECTION('center_axis',(-1.,0.,2.22044604925031E-16));
#514=DIRECTION('ref_axis',(0.,0.,-1.));
#515=DIRECTION('',(-1.,0.,0.));
#516=DIRECTION('center_axis',(-1.,0.,0.));
#517=DIRECTION('ref_axis',(0.,0.,-1.));
#518=DIRECTION('center_axis',(-1.,0.,2.22044604925031E-16));
#519=DIRECTION('ref_axis',(0.,0.,-1.));
#520=DIRECTION('',(-1.,0.,0.));
#521=DIRECTION('center_axis',(-1.,0.,0.));
#522=DIRECTION('ref_axis',(0.,0.,-1.));
#523=DIRECTION('center_axis',(-1.,0.,2.22044604925031E-16));
#524=DIRECTION('ref_axis',(0.,0.,-1.));
#525=DIRECTION('',(-1.,0.,0.));
#526=DIRECTION('center_axis',(-1.,0.,0.));
#527=DIRECTION('ref_axis',(0.,0.,-1.));
#528=DIRECTION('center_axis',(-1.,0.,2.22044604925031E-16));
#529=DIRECTION('ref_axis',(0.,0.,-1.));
#530=DIRECTION('',(-1.,0.,0.));
#531=DIRECTION('center_axis',(-1.,0.,0.));
#532=DIRECTION('ref_axis',(0.,1.,1.83697019872103E-16));
#533=DIRECTION('center_axis',(-1.,0.,2.22044604925031E-16));
#534=DIRECTION('ref_axis',(0.,0.,-1.));
#535=DIRECTION('',(-1.,0.,0.));
#536=DIRECTION('center_axis',(-1.,0.,0.));
#537=DIRECTION('ref_axis',(0.,0.,-1.));
#538=DIRECTION('center_axis',(-1.,0.,2.22044604925031E-16));
#539=DIRECTION('ref_axis',(0.,0.,-1.));
#540=DIRECTION('center_axis',(-1.,0.,0.));
#541=DIRECTION('ref_axis',(0.,0.,-1.));
#542=DIRECTION('',(-1.,0.,0.));
#543=DIRECTION('center_axis',(1.,0.,-2.22044604925031E-16));
#544=DIRECTION('ref_axis',(0.,0.,-1.));
#545=DIRECTION('center_axis',(-1.,0.,0.));
#546=DIRECTION('ref_axis',(0.,0.,-1.));
#547=DIRECTION('center_axis',(-1.,0.,2.22044604925031E-16));
#548=DIRECTION('ref_axis',(0.,0.,-1.));
#549=DIRECTION('',(-1.,0.,0.));
#550=DIRECTION('center_axis',(-1.,0.,0.));
#551=DIRECTION('ref_axis',(0.,0.,-1.));
#552=DIRECTION('',(-1.,0.,0.));
#553=DIRECTION('center_axis',(1.,0.,-2.22044604925031E-16));
#554=DIRECTION('ref_axis',(0.,0.,-1.));
#555=DIRECTION('center_axis',(-1.,0.,0.));
#556=DIRECTION('ref_axis',(0.,0.,-1.));
#557=DIRECTION('',(-1.,0.,0.));
#558=DIRECTION('center_axis',(1.,0.,-2.22044604925031E-16));
#559=DIRECTION('ref_axis',(0.,0.,-1.));
#560=DIRECTION('center_axis',(-1.,0.,0.));
#561=DIRECTION('ref_axis',(0.,0.,-1.));
#562=DIRECTION('center_axis',(-1.,0.,2.22044604925031E-16));
#563=DIRECTION('ref_axis',(0.,0.,-1.));
#564=DIRECTION('',(-1.,0.,0.));
#565=DIRECTION('center_axis',(-1.,0.,0.));
#566=DIRECTION('ref_axis',(0.,0.,-1.));
#567=DIRECTION('center_axis',(-1.,0.,2.22044604925031E-16));
#568=DIRECTION('ref_axis',(0.,0.,-1.));
#569=DIRECTION('',(-1.,0.,0.));
#570=DIRECTION('center_axis',(-1.,0.,0.));
#571=DIRECTION('ref_axis',(0.,0.,-1.));
#572=DIRECTION('',(-1.,0.,0.));
#573=DIRECTION('center_axis',(1.,0.,-2.22044604925031E-16));
#574=DIRECTION('ref_axis',(0.,0.,-1.));
#575=DIRECTION('center_axis',(1.,0.,-2.22044604925031E-16));
#576=DIRECTION('ref_axis',(-2.22044604925031E-16,0.,-1.));
#577=DIRECTION('center_axis',(1.,0.,-2.22044604925031E-16));
#578=DIRECTION('ref_axis',(-2.22044604925031E-16,0.,-1.));
#579=DIRECTION('',(-1.,0.,2.22044604925031E-16));
#580=DIRECTION('center_axis',(-1.,0.,2.22044604925031E-16));
#581=DIRECTION('ref_axis',(2.22044604925031E-16,0.,1.));
#582=DIRECTION('center_axis',(1.,0.,-2.22044604925031E-16));
#583=DIRECTION('ref_axis',(-2.22044604925031E-16,0.,-1.));
#584=CARTESIAN_POINT('',(0.,0.,0.));
#585=CARTESIAN_POINT('Origin',(0.,0.,0.));
#586=CARTESIAN_POINT('',(0.,-9.79717439317883E-16,-8.));
#587=CARTESIAN_POINT('Origin',(0.,0.,0.));
#588=CARTESIAN_POINT('',(2.,-1.11022302462516E-15,-8.));
#589=CARTESIAN_POINT('',(0.,9.79717439317883E-16,-8.));
#590=CARTESIAN_POINT('Origin',(2.,0.,0.));
#591=CARTESIAN_POINT('Origin',(2.,0.,0.));
#592=CARTESIAN_POINT('',(2.,-1.83697019872103E-15,15.));
#593=CARTESIAN_POINT('Origin',(2.,0.,-4.44089209850063E-16));
#594=CARTESIAN_POINT('',(2.,-5.00173157647485,9.90925408086033));
#595=CARTESIAN_POINT('Origin',(2.,-5.00173157647485,8.65925408086033));
#596=CARTESIAN_POINT('',(2.,-5.00173157647485,-7.40925408086034));
#597=CARTESIAN_POINT('Origin',(2.,-5.00173157647485,-8.65925408086034));
#598=CARTESIAN_POINT('',(2.,9.99653644722338,1.25));
#599=CARTESIAN_POINT('Origin',(2.,9.99653644722338,-2.48889192037338E-65));
#600=CARTESIAN_POINT('Origin',(3.,0.,0.));
#601=CARTESIAN_POINT('',(3.,1.67594414713582,5.34333334311843));
#602=CARTESIAN_POINT('',(3.,5.34333334311843,1.67594414713582));
#603=CARTESIAN_POINT('Origin',(3.,0.,0.));
#604=CARTESIAN_POINT('',(3.,-1.67594414713582,5.34333334311843));
#605=CARTESIAN_POINT('Origin',(3.,0.,6.00000008940697));
#606=CARTESIAN_POINT('',(3.,-5.34333334311843,1.67594414713582));
#607=CARTESIAN_POINT('Origin',(3.,0.,0.));
#608=CARTESIAN_POINT('',(3.,-5.34333334311843,-1.67594414713582));
#609=CARTESIAN_POINT('Origin',(3.,-6.00000008940697,0.));
#610=CARTESIAN_POINT('',(3.,-1.67594414713582,-5.34333334311843));
#611=CARTESIAN_POINT('Origin',(3.,0.,0.));
#612=CARTESIAN_POINT('',(3.,1.67594414713582,-5.34333334311843));
#613=CARTESIAN_POINT('Origin',(3.,0.,-6.00000008940697));
#614=CARTESIAN_POINT('',(3.,5.34333334311843,-1.67594414713582));
#615=CARTESIAN_POINT('Origin',(3.,0.,0.));
#616=CARTESIAN_POINT('Origin',(3.,6.00000008940697,0.));
#617=CARTESIAN_POINT('',(3.,-6.00000008940697,1.1));
#618=CARTESIAN_POINT('Origin',(3.,-6.00000008940697,0.));
#619=CARTESIAN_POINT('',(3.,6.00000008940697,1.1));
#620=CARTESIAN_POINT('Origin',(3.,6.00000008940697,0.));
#621=CARTESIAN_POINT('',(3.,0.,-4.90000008940697));
#622=CARTESIAN_POINT('Origin',(3.,0.,-6.00000008940697));
#623=CARTESIAN_POINT('',(3.,0.,7.10000008940697));
#624=CARTESIAN_POINT('Origin',(3.,0.,6.00000008940697));
#625=CARTESIAN_POINT('Origin',(8.,0.,6.00000008940697));
#626=CARTESIAN_POINT('',(8.,-1.67594414713582,5.34333334311843));
#627=CARTESIAN_POINT('',(8.,1.67594414713582,5.34333334311843));
#628=CARTESIAN_POINT('Origin',(8.,0.,6.00000008940697));
#629=CARTESIAN_POINT('',(8.,-1.67594414713582,5.34333334311843));
#630=CARTESIAN_POINT('',(8.,1.67594414713582,5.34333334311843));
#631=CARTESIAN_POINT('Origin',(8.,0.,0.));
#632=CARTESIAN_POINT('',(8.,-5.34333334311843,1.67594414713582));
#633=CARTESIAN_POINT('Origin',(8.,0.,0.));
#634=CARTESIAN_POINT('',(8.,-5.34333334311843,1.67594414713582));
#635=CARTESIAN_POINT('Origin',(8.,-6.00000008940697,0.));
#636=CARTESIAN_POINT('',(8.,-5.34333334311843,-1.67594414713582));
#637=CARTESIAN_POINT('Origin',(8.,-6.00000008940697,0.));
#638=CARTESIAN_POINT('',(8.,-5.34333334311843,-1.67594414713582));
#639=CARTESIAN_POINT('Origin',(8.,0.,0.));
#640=CARTESIAN_POINT('',(8.,-1.67594414713582,-5.34333334311843));
#641=CARTESIAN_POINT('Origin',(8.,0.,0.));
#642=CARTESIAN_POINT('',(8.,-1.67594414713582,-5.34333334311843));
#643=CARTESIAN_POINT('Origin',(8.,0.,-6.00000008940697));
#644=CARTESIAN_POINT('',(8.,1.67594414713582,-5.34333334311843));
#645=CARTESIAN_POINT('Origin',(8.,0.,-6.00000008940697));
#646=CARTESIAN_POINT('',(8.,1.67594414713582,-5.34333334311843));
#647=CARTESIAN_POINT('Origin',(8.,0.,0.));
#648=CARTESIAN_POINT('',(8.,5.34333334311843,-1.67594414713582));
#649=CARTESIAN_POINT('Origin',(8.,0.,0.));
#650=CARTESIAN_POINT('',(8.,5.34333334311843,-1.67594414713582));
#651=CARTESIAN_POINT('Origin',(8.,6.00000008940697,0.));
#652=CARTESIAN_POINT('',(8.,5.34333334311843,1.67594414713582));
#653=CARTESIAN_POINT('Origin',(8.,6.00000008940697,0.));
#654=CARTESIAN_POINT('',(8.,5.34333334311843,1.67594414713582));
#655=CARTESIAN_POINT('Origin',(8.,0.,0.));
#656=CARTESIAN_POINT('Origin',(8.,0.,0.));
#657=CARTESIAN_POINT('Origin',(8.,0.,-6.00000008940697));
#658=CARTESIAN_POINT('',(0.,-1.34711147906209E-16,-4.90000008940697));
#659=CARTESIAN_POINT('',(8.,1.34711147906209E-16,-4.90000008940697));
#660=CARTESIAN_POINT('Origin',(0.,0.,-6.00000008940697));
#661=CARTESIAN_POINT('Origin',(8.,9.99653644722338,-2.48889192037338E-65));
#662=CARTESIAN_POINT('',(8.,9.99653644722338,1.25));
#663=CARTESIAN_POINT('Origin',(8.,9.99653644722338,-2.48889192037338E-65));
#664=CARTESIAN_POINT('',(8.,9.99653644722338,1.25));
#665=CARTESIAN_POINT('Origin',(8.,6.00000008940697,0.));
#666=CARTESIAN_POINT('',(0.,6.00000008940697,1.1));
#667=CARTESIAN_POINT('',(8.,6.00000008940697,1.1));
#668=CARTESIAN_POINT('Origin',(0.,6.00000008940697,0.));
#669=CARTESIAN_POINT('Origin',(8.,0.,6.00000008940697));
#670=CARTESIAN_POINT('',(0.,-1.34711147906209E-16,7.10000008940697));
#671=CARTESIAN_POINT('',(8.,1.34711147906209E-16,7.10000008940697));
#672=CARTESIAN_POINT('Origin',(0.,0.,6.00000008940697));
#673=CARTESIAN_POINT('Origin',(8.,-5.00173157647485,-8.65925408086034));
#674=CARTESIAN_POINT('',(8.,-5.00173157647485,-7.40925408086034));
#675=CARTESIAN_POINT('Origin',(8.,-5.00173157647485,-8.65925408086034));
#676=CARTESIAN_POINT('',(8.,-5.00173157647485,-7.40925408086034));
#677=CARTESIAN_POINT('Origin',(8.,-5.00173157647485,8.65925408086033));
#678=CARTESIAN_POINT('',(8.,-5.00173157647485,9.90925408086033));
#679=CARTESIAN_POINT('Origin',(8.,-5.00173157647485,8.65925408086033));
#680=CARTESIAN_POINT('',(8.,-5.00173157647485,9.90925408086033));
#681=CARTESIAN_POINT('Origin',(8.,-6.00000008940697,0.));
#682=CARTESIAN_POINT('',(0.,-6.00000008940697,1.1));
#683=CARTESIAN_POINT('',(8.,-6.00000008940697,1.1));
#684=CARTESIAN_POINT('Origin',(0.,-6.00000008940697,0.));
#685=CARTESIAN_POINT('Origin',(4.,0.,-8.88178419700125E-16));
#686=CARTESIAN_POINT('',(8.,-1.83697019872103E-15,15.));
#687=CARTESIAN_POINT('Origin',(8.,0.,-1.77635683940025E-15));
#688=CARTESIAN_POINT('',(4.,-1.83697019872103E-15,15.));
#689=CARTESIAN_POINT('Origin',(0.,0.,0.));
#690=CARTESIAN_POINT('Origin',(8.,0.,-1.77635683940025E-15));
#691=UNCERTAINTY_MEASURE_WITH_UNIT(LENGTH_MEASURE(0.01),#695,
'DISTANCE_ACCURACY_VALUE',
'Maximum model space distance between geometric entities at asserted c
onnectivities');
#692=UNCERTAINTY_MEASURE_WITH_UNIT(LENGTH_MEASURE(0.01),#695,
'DISTANCE_ACCURACY_VALUE',
'Maximum model space distance between geometric entities at asserted c
onnectivities');
#693=(
GEOMETRIC_REPRESENTATION_CONTEXT(3)
GLOBAL_UNCERTAINTY_ASSIGNED_CONTEXT((#691))
GLOBAL_UNIT_ASSIGNED_CONTEXT((#695,#697,#698))
REPRESENTATION_CONTEXT('','3D')
);
#694=(
GEOMETRIC_REPRESENTATION_CONTEXT(3)
GLOBAL_UNCERTAINTY_ASSIGNED_CONTEXT((#692))
GLOBAL_UNIT_ASSIGNED_CONTEXT((#695,#697,#698))
REPRESENTATION_CONTEXT('','3D')
);
#695=(
LENGTH_UNIT()
NAMED_UNIT(*)
SI_UNIT(.MILLI.,.METRE.)
);
#696=(
LENGTH_UNIT()
NAMED_UNIT(*)
SI_UNIT($,.METRE.)
);
#697=(
NAMED_UNIT(*)
PLANE_ANGLE_UNIT()
SI_UNIT($,.RADIAN.)
);
#698=(
NAMED_UNIT(*)
SI_UNIT($,.STERADIAN.)
SOLID_ANGLE_UNIT()
);
#699=SHAPE_DEFINITION_REPRESENTATION(#700,#701);
#700=PRODUCT_DEFINITION_SHAPE('',$,#703);
#701=SHAPE_REPRESENTATION('',(#399),#693);
#702=PRODUCT_DEFINITION_CONTEXT('part definition',#707,'design');
#703=PRODUCT_DEFINITION('2026-01-06-12-00-26-911','WheelAdaptor',#704,#702);
#704=PRODUCT_DEFINITION_FORMATION('',$,#709);
#705=PRODUCT_RELATED_PRODUCT_CATEGORY('WheelAdaptor','WheelAdaptor',(#709));
#706=APPLICATION_PROTOCOL_DEFINITION('international standard',
'automotive_design',2009,#707);
#707=APPLICATION_CONTEXT(
'Core Data for Automotive Mechanical Design Process');
#708=PRODUCT_CONTEXT('part definition',#707,'mechanical');
#709=PRODUCT('2026-01-06-12-00-26-911','WheelAdaptor',$,(#708));
#710=PRESENTATION_STYLE_ASSIGNMENT((#711));
#711=SURFACE_STYLE_USAGE(.BOTH.,#712);
#712=SURFACE_SIDE_STYLE('',(#713));
#713=SURFACE_STYLE_FILL_AREA(#714);
#714=FILL_AREA_STYLE('\X2\92FC\X0\ - \X2\30B530C630F3\X0\',(#715));
#715=FILL_AREA_STYLE_COLOUR('\X2\92FC\X0\ - \X2\30B530C630F3\X0\',#716);
#716=COLOUR_RGB('\X2\92FC\X0\ - \X2\30B530C630F3\X0\',0.627450980392157,
0.627450980392157,0.627450980392157);
ENDSEC;
END-ISO-10303-21;
